/* XPM */
static char *result[] = {
/* columns rows colors chars-per-pixel */
"16 16 182 2 ",
"   c #004AA3",
".  c #004BA4",
"X  c #004DA4",
"o  c #004FA4",
"O  c #004FA5",
"+  c #0055A8",
"@  c #0057A8",
"#  c #0156A9",
"$  c #0057A9",
"%  c #0356A8",
"&  c #0058A9",
"*  c #0059A9",
"=  c #0058AA",
"-  c #0158AA",
";  c #005AAA",
":  c #005BAA",
">  c #015BAB",
",  c #035AAA",
"<  c #035BAB",
"1  c #025CAB",
"2  c #045DAB",
"3  c #055DAC",
"4  c #055EAC",
"5  c #065EAC",
"6  c #085CAB",
"7  c #0D5FAC",
"8  c #0E5FAC",
"9  c #0760AD",
"0  c #0860AD",
"q  c #0960AD",
"w  c #0B61AD",
"e  c #0B62AE",
"r  c #0D60AD",
"t  c #0C61AE",
"y  c #0E61AE",
"u  c #0C62AE",
"i  c #0F62AE",
"p  c #0E63AE",
"a  c #0E64AE",
"s  c #0F64AF",
"d  c #0E65AF",
"f  c #1264AD",
"g  c #1064AF",
"h  c #1065AF",
"j  c #1264AE",
"k  c #1166AF",
"l  c #1664AF",
"z  c #1765AF",
"x  c #1863AF",
"c  c #1066B0",
"v  c #1266B0",
"b  c #1366B0",
"n  c #1367B0",
"m  c #1466B0",
"M  c #1467B0",
"N  c #1567B0",
"B  c #1766B0",
"V  c #1D67B0",
"C  c #1068B0",
"Z  c #1368B1",
"A  c #1468B0",
"S  c #1568B0",
"D  c #1568B1",
"F  c #1668B0",
"G  c #1669B0",
"H  c #1768B1",
"J  c #1A6AB1",
"K  c #1B6BB2",
"L  c #1E68B0",
"P  c #1B6CB2",
"I  c #1C6DB2",
"U  c #1E6CB3",
"Y  c #1F6EB3",
"T  c #1F6EB4",
"R  c #246FB3",
"E  c #266EB3",
"W  c #226EB4",
"Q  c #2972B5",
"!  c #2873B5",
"~  c #2C74B6",
"^  c #2D74B6",
"/  c #2F75B6",
"(  c #2D77B7",
")  c #3076B5",
"_  c #3276B6",
"`  c #3775B6",
"'  c #3676B7",
"]  c #3876B7",
"[  c #3877B7",
"{  c #3278B7",
"}  c #3177B9",
"|  c #3377B8",
" . c #3576B8",
".. c #3577B8",
"X. c #3977B8",
"o. c #3379B8",
"O. c #3479B8",
"+. c #3479B9",
"@. c #3679B9",
"#. c #3878B8",
"$. c #3979B9",
"%. c #397AB9",
"&. c #3B7BB8",
"*. c #3A7BB9",
"=. c #3C7BBA",
"-. c #387CB9",
";. c #3A7CB9",
":. c #3C7CB9",
">. c #3C7DBA",
",. c #3E7EBA",
"<. c #467EBB",
"1. c #467FBD",
"2. c #3D85BD",
"3. c #3E85BD",
"4. c #4280BB",
"5. c #4580BA",
"6. c #4781BB",
"7. c #4383BD",
"8. c #4481BC",
"9. c #4581BD",
"0. c #4781BC",
"q. c #4683BC",
"w. c #4783BC",
"e. c #4580BE",
"r. c #4084BD",
"t. c #4185BD",
"y. c #4784BD",
"u. c #4784BE",
"i. c #4786BF",
"p. c #4980BB",
"a. c #4980BC",
"s. c #4881BC",
"d. c #4883BE",
"f. c #4882BF",
"g. c #4C83BD",
"h. c #4D83BD",
"j. c #4D83BE",
"k. c #4984BC",
"l. c #4B84BC",
"z. c #4886BD",
"x. c #4885BE",
"c. c #4985BE",
"v. c #4A85BF",
"b. c #4886BE",
"n. c #4987BE",
"m. c #4D85BD",
"M. c #4C84BE",
"N. c #4E85BE",
"B. c #4F86BE",
"V. c #4E87BE",
"C. c #4F86BF",
"Z. c #5184BE",
"A. c #558ABE",
"S. c #5187C0",
"D. c #5387C0",
"F. c #5787C0",
"G. c #5A8BC2",
"H. c #598FC3",
"J. c #5C8CC0",
"K. c #5F93C3",
"L. c #6091C3",
"P. c #6291C3",
"I. c #7B9FC8",
"U. c #77A2CB",
"Y. c #83AACE",
"T. c #87A9CC",
"R. c #88ABCF",
"E. c #90B2CF",
"W. c #94B4D2",
"Q. c #9BB7D4",
"!. c #9AB8D3",
"~. c #9DB8D3",
"^. c #A4BDD4",
"/. c #AFC6D9",
"(. c #B2C6DA",
"). c #B4C7DA",
"_. c #B8CBDB",
"`. c #C2D1DB",
"'. c #C0D0DD",
"]. c #C3D3E0",
"[. c #D9E1E4",
"{. c None",
/* pixels */
"{.{.{.{.{.q.0.n.z.6.9.{.{.{.{.{.",
"{.{.{.G.<.` V $ ; L ] p.F.{.{.{.",
"{.{.j...8 E { %.l.o.R 7 #.M.{.{.",
"{.v.=.@ U :.4.P.A.;.-.P & ,.f.{.",
"{.M.1 A s Q O.g t L.*.4 D 2 m.{.",
"t.^ 9 F F q 3 d u J.g.9 S 5 ) 3.",
"k.y A M M S G 3 ( 5.:.K h n f u.",
"i.q b N k h S 0 ! *._ J v b q c.",
"b.0 m Z - 6 a < ; I p : w D q c.",
"k.i C % R.Y.x 8.H.# W T H c j y.",
"r./ > r `.^.U._.Q.I.!.~.W.X / 2.",
"{.V.  7.].E.).'./.(.T.[.K.. B.{.",
"{.d.$.l } Y &.| @.+.~ @., >.e.{.",
"{.{.S. .o $ = & * ; + O X.C.{.{.",
"{.{.{.D.h.' z e t B [ N.Z.{.{.{.",
"{.{.{.{.{.w.a.x.x.s.1.{.{.{.{.{."
};
