/* XPM */
static char *result[] = {
/* columns rows colors chars-per-pixel */
"32 32 89 1 ",
"  c #0046A2",
". c #004DA4",
"X c #0053A7",
"o c #0056A8",
"O c #025BAB",
"+ c #0A5DAC",
"@ c #135AAB",
"# c #0760AD",
"$ c #0B62AE",
"% c #1264AF",
"& c #1866AE",
"* c #0F67B0",
"= c #1467B0",
"- c #1C67B0",
"; c #1569B1",
": c #1B6AB2",
"> c #236BAE",
", c #246FB4",
"< c #286EB3",
"1 c #2471B4",
"2 c #2C74B6",
"3 c #2B79B2",
"4 c #3276B7",
"5 c #3B73B7",
"6 c #327CB5",
"7 c #3978B7",
"8 c #3B76B9",
"9 c #357BBA",
"0 c #3B7CBA",
"q c #4277B9",
"w c #437CBA",
"e c #4E7EBB",
"r c #3E82BB",
"t c #4482BC",
"y c #4B85BE",
"u c #4D8ABF",
"i c #5285BE",
"p c #548ABF",
"a c #4E8AC1",
"s c #5487C1",
"d c #538BC0",
"f c #5A8DC2",
"g c #5D92C3",
"h c #638FC2",
"j c #6393C4",
"k c #6B96C6",
"l c #6298C5",
"z c #6C9AC6",
"x c #6E9AC8",
"c c #7297C4",
"v c #719CC7",
"b c #759DCB",
"n c #7D9FCC",
"m c #6FA0CE",
"M c #73A1CC",
"N c #7DA2CB",
"B c #79A8CB",
"V c #77A5D0",
"C c #839FCA",
"Z c #80A3CC",
"A c #84A9CB",
"S c #91AFCD",
"D c #93B0CF",
"F c #8CB2D0",
"G c #93B0D1",
"H c #9BB6D2",
"J c #9CBAD4",
"K c #A4BED4",
"L c #A0BEDE",
"P c #A4C2D7",
"I c #ADC5D6",
"U c #AEC6D8",
"Y c #B3C3D7",
"T c #B1C7DA",
"R c #B4CBDA",
"E c #BACDDC",
"W c #BED2DE",
"Q c #C3D5DF",
"! c #C9D6DF",
"~ c #CCD9E2",
"^ c #D3DDE6",
"/ c #DBDFE3",
"( c #DEE3E5",
") c #D8E1E8",
"_ c #E0E6E5",
"` c #E1E6EA",
"' c #EFF1F3",
"] c #FFFDF6",
"[ c None",
/* pixels */
"[[[[[[[[[[[[tddggadt[[[[[[[[[[[[",
"[[[[[[[[[wkjjdtrrtdjkj0[[[[[[[[[",
"[[[[[[[<xky-XoOOOOoo-yck,[[[[[[[",
"[[[[[[ynwoX$;+*=*O$=*.Otnw[[[[[[",
"[[[[[fb@O$7gid$O7tpyf7$O%Np[[[[[",
"[[[[fko*=%g2+uktexu$9g$:+ovd[[[[",
"[[[ybo*===y#.2zuwj1.$u%==$Onq[[[",
"[[,n+$===$fd7jkt7pg3dgO===+=Z:[[",
"[[xtO====$1dut&+O%kvz%$&==;Oyk[[",
"[0ko=====:#OOO*==$0ytO=;====Ok6[",
"[gtO======&===;*=O7wt4$;====odg[",
"[k============&==$pcx7O;=====:j[",
"tgX;*;==========Orzwgp#;=====Og9",
"daO;=&&;========Oa2.$u%*=====oda",
"dt#*===*========OptO2g$======Oud",
"gr#*============#2jij0#======Oyd",
"grO======&======;#*1:#=======Otd",
"dtO====;O.OOO::OX:*%=========Oad",
"ddo&===+9Jy0x.o0jO$O=OO=O*===odd",
"rgO;=== F]Rdt:@B^.*r.97O9*===Og9",
"[l:====.PUANMWAv'Ah~vESf`lX==,j[",
"[jyO==*=JUUAyEHv(MeERTX!(l.=odg[",
"[6kO==OaSH~B0)IjPSPW.JRKN:$=Ok3[",
"[[ktX=.B]GFEY/K`DE]SCTQ^NO=odk[[",
"[[:N=#+0M:1tag4M0,m2gjOV9++:N;[[",
"[[[wNO=O.$OOOXO.O#.OOX*.O$OZ5[[[",
"[[[[snO#========%=======O+Ny[[[[",
"[[[[[sn=X==============X:Ze[[[[[",
"[[[[[[0nsOo==%======*X+sZ5[[[[[[",
"[[[[[[[-kkp,OOOOOOOO<fkk&[[[[[[[",
"[[[[[[[[[4kkjypttpphkj2[[[[[[[[[",
"[[[[[[[[[[[[7ydaaaa7[[[[[[[[[[[["
};
