/* XPM */
static char *diabase1281695139813[] = {
/* columns rows colors chars-per-pixel */
"128 128 71 1 ",
"  c None",
". c #005DE1",
"X c #0063E2",
"o c #006DE4",
"O c #0074E5",
"+ c #0A77E6",
"@ c #027AE6",
"# c #097EE7",
"$ c #137BE6",
"% c #197FE7",
"& c #0B80E7",
"* c #0C81E8",
"= c #1282E7",
"- c #1C83E7",
"; c #1284E8",
": c #1A86E9",
"> c #1688E9",
", c #1B89E9",
"< c #218CE9",
"1 c #2B8CE9",
"2 c #328DE9",
"3 c #388AE9",
"4 c #2B91EB",
"5 c #3594EB",
"6 c #3B94EB",
"7 c #3E98EB",
"8 c #4295EB",
"9 c #4997EC",
"0 c #439AEC",
"q c #4D9FED",
"w c #549FED",
"e c #4DA0ED",
"r c #55A3EE",
"t c #5CA6EE",
"y c #5EA8EF",
"u c #63AAEF",
"i c #6AACEF",
"p c #65AEF0",
"a c #6AAEF0",
"s c #71ADF0",
"d c #6CB0F0",
"f c #74B3F1",
"g c #7AB5F1",
"h c #7BB9F2",
"j c #85BDF3",
"k c #8ABDF3",
"l c #87C0F3",
"z c #8CC2F3",
"x c #95C7F4",
"c c #99C6F4",
"v c #96C9F5",
"b c #9DCBF6",
"n c #A4CEF6",
"m c #A7D0F6",
"M c #ACD2F7",
"N c #B3D5F7",
"B c #B8D7F7",
"V c #BCDAF8",
"C c #C3DDF9",
"Z c #CBDFF9",
"A c #C6E0FA",
"S c #CCE2FA",
"D c #D2E5FA",
"F c #D4E9FB",
"G c #DBEBFB",
"H c #E2EFFC",
"J c #E4F0FC",
"K c #E9F2FD",
"L c #F0F7FE",
"P c #F2F9FE",
"I c #FFFFFF",
/* pixels */
"                                                                                                                                ",
"                                                                                                                                ",
"                                                            ,,,,,,,,                                                            ",
"                                                      ,,,,,,,,,,,,,,,,,,,,                                                      ",
"                                                 ,,,,,,,,,>,,,,,,,,,,,,,,,,,,,,                                                 ",
"                                             ,,,,,,,,,,,,,,,,,,,,,,,,,,,,,,,,,,,,,,                                             ",
"                                          ,,,,,,,,,,,,,,,,,,,,,,,,,,,,,,,,,,,,,,,,,,,                                           ",
"                                        ,,,,,,,,,,,,,,,,,,,,,,,,,,,,,,,,,,,,,,,,,,,,,,,,                                        ",
"                                      ,,,,,,,,,,,,,,,,,,,,,,,,,,,,,,,,,,,,,,,,,,,,,,,,,,,,                                      ",
"                                    ,,,,,,,,,,,,,,,,,,,,>,,,,,,,,,,,,,,,,,,,,,,,,,,,,,,,,,,,                                    ",
"                                  ,,,,,,,,,,,,,,,,,,,,,,,,,,,,,,,,,,>,,,,,,,,,,,,,,,,>,,,,,,,,                                  ",
"                                ,,,,,,,,,,>,,,,,,,,,,,,,,,,,,,,,,,,,,,,,,,,,,,,,,,>,,,,,,,,,,,,,                                ",
"                              ,,,,,,,,,,,,,,,,,,,,,,,,,,,,>,,,,,,,,,,,,,,,>,,,,,,,,,,,,,,,,,,,,,,                               ",
"                             ,,,,,,,,,,,,,,,,,,,,,,,,,,>,,,,,,,,,,,,,,,,,,,,>,,,,,,,,,,,,,,,,,,,,,,                             ",
"                            ,,,,,,,,,,,,,,,,,,,,,,,,,,,,,,,,,,,,,,,,,,,,,,,,,,,,,,,,,,,,,,,,,,,,,,,,                            ",
"                          ,,,,,,,,,,,,,,,,,:,,,,,,,,,,,,,,,,,,,,,,,,,,,,,,,,,,,,,,,,,,,,,,,,,,,,,,,,,,                          ",
"                         ,,,,,,,,,,,,,,,,,,,,,,,,,,,,,,,,,,,,,,,,,,,,,,,,,,,,,,,,,,,,,,,,,,>,,,,,,,,,,,                         ",
"                        ,,,,,,,,,,,,,,,,,,,,,,,,,,,,,,,,,,,,,,,,,,,,,,,,,,,,,,,,,,,,,,,,,,,,,,,,,,,,,,,,                        ",
"                       ,,,,,,,,,,,,,,,,,,:,,,,,,:,,,,,,,,,,,,,,:,,,,,,,,,,,,,,,,>,,,,,,,,,,,,,,,,,,,,,,,,                       ",
"                      ,,,,,,,,,,,,,,,,,,,,,,,,,,,,,,,,,,,,,,,,,,,,,,,,,>,,,,,,,,,,,,,,,,,,,,,,,,,,,,,,,,,,                      ",
"                     ,,,,,,,,,,,,,,,,,,,,,,,,,,,,,,,,,,,,,,>,,,,,,,,,,,,,,,,,,,,,,,,,,,,,,,,,,,,,,,,,,,,,,,                     ",
"                    ,,,,,,,,,,,,,,,,,,,,,,,,>,,,,,,,,,,,,,,,,,,,,,,,,,,,,,,,,,>,,,,,,,,,,,,,,,,,,,,,,,,,,,,,                    ",
"                   ,,,,,,,,,,,,,,>,,,,,,,,,,,,,,,,,,,,,,,,,,,,,,,,,,,,,,,,,,,,,,,,,,,,,,,,,,,,,,,,,,,,,,,,,,,                   ",
"                  ,,,,,,>,,,,,,,,,,,,,,,,,,,,,,,,,,,,,,,,,,,,,,,,,,,,,,,,,,,,,,,,,,,,,,,,,,,,,,,,,,,,,,,,,,,,,                  ",
"                 ,,,,,,,,,,,,>,,,,,,,,,,,,,,:,,,,>,,,,,,,,,,,,,,,,,,,,,,,,,,,,,,,,,,,,-,,,,,,,,,,,,,,,,,,,,,,,,                 ",
"                ,,,,,,,,,,,,,,,,,,,,:,,,,,,,,,,,,,,,,,,,,,,,,,,,,,,,,,,,,,,,,,,-,>,,,,>,,,,,,,,,>,,,,,>,,,,,,,,,                ",
"               ,,,,,,,,,,,,,,,,,,,,,,,,,,,,,,,,,,,,,,,,,,,,,,,,,,,,,,,,,,,,,,,,,,,,,,,,,,,,,,,>,,,,,,,,,,,,,,>,,,               ",
"               ,,,,,,,,,,,,,,,,,,,,,,,,,,,,,,,,,,,,,,,,,,,,,,,,,,,,,,,,,,,,,,,,,,,,,,,,,,,,,,,,,,,,,,,,,,,,,,,,,,               ",
"              ,,,,,>,,,,,,,,,,,,,,,,,,,,,,,,,,,,,,,,,,,,,,,,,,,,,,,,,,,,,,,,,,,,,,,,,,,,,,,,,,,,,,,,,,,,,,,,,,,,,,              ",
"             ,,,,,,,,,,,,,,,,,,,,,,,>,,,,,,,,,,,,,,,,,,,,,,,,,,,,,,,,,,,,,,,,,,,,,,,,,,,,,,,,,,,>,,,,,,,,,,,,,,,,,,             ",
"            ,,,,,,,,,,,,,,,,,,,,,,,,,,,,,,,,,,,,,,,,,,,,,,,,,,,,,>,,,,,,,,,,,,,,,,,,,,,,,,,,,,,,,,,,,,,,,,,,,,,,,,,             ",
"            ,,,,,,,,,,,,,,,>,,,,,,,,,,,,,,,,,,,,>,,,,,,,,,,,,,,,,,,,,,,,>,,,,,,,,,,,,,,,,,,,,,,,,,,,,,,,,,,,,,,,,,,,            ",
"           ,,,,,,,,,,,,,,,,,,,,,,,,,,,,,,,,,,,,,,,,,,,,,,,,,,,,,,,,,,,,,,,,,,,,,,,,,,,,,,,,,,,,,,,,,,,,,,,,,,,,,,,,,,           ",
"           ,,,,,,,,,,,,,,,,,,,,,,,,,,,,,,,,,,,,,,,,,:,,,,,,,,,,,,,,,,,,,,,,,,,,,,,:,,,,,,,,,,,,,,,,,,,,,,,,,,,,,,,,,,           ",
"          ,,,,,,,,,,,,,,,,,,,,,,,,,,,,,,,,,,,,,,,,,,,,,,,,,,,,,,,,,,,,,,,,,,,>,,,,,,,,,,,,,,,,,,,,,,,,,,,,,,,,,,,,,,,,          ",
"         ,,,,,,,,,,,,,,,,,,,,,,,,,,,,,>,,,,,,,,,,,,,,,,,,,,,,,,,,,,,,,,,,,,,,,,,,,,,,,,,,,,,,,,,,,,,,,,,,,,,,,,,,,,,,,          ",
"         ,,,,,,,,,,,,,,,,>,,,,,,,,,,,,,,,,,,,,,,,,,,,,,,,,,,,,,,,,,,,,,,,,<,<,,<,,,,,,,,,,,<,,,,,<,<,,,<,,,,,,,,,,,,,,,         ",
"        ,,,,,,,,,,,,,,,,,,,,,,,,,,,,,>>>>>>>>>>>>>,>>>,,,,,,,,,,,,,,,;&*#*#####**&**&***#**#*#**#####**#=;>,,,,,,,,,,,,         ",
"        ,,,,,,,,,,,,,,,,,,,,,*@OOOOOOO@O@OOOO@OOO@O@OOOOO&,,,,,,,,,,O+,,,,,,>,,>>,,:-:,>,>,,>,>,,,>,,>,:*#OO@>,,,,,,,,,,        ",
"        ,,,,,,,,,,,,,,,,,,;OO=5ulbMNNNNNNNNNNNNNNNNNNBMbu:O,,,,,,,,OaSLKKKKKKKKKKKKKKKKKKKKKKKKKKKKKKKKKGZmh8#O;,,,,,,,,        ",
"       ,,,,,,,,,,,,,,,,<#o#rbGIIIIIIIIIIIIIIIIIIIIIIIIIIIKiO,<,,,,OpIIIIIIIIIIIIIIIIIIIIIIIIIIIIIIIIIIIIIIIIISaO@,,,,,,,,       ",
"       ,,,,,,,,,,,,,,<;o=gHIIIIIIIIIIIIIIIIIIIIIIIIIIIIIIIIfO,,,,>@DIIIIIIIIIIIIIIIIIIIIIIIIIIIIIIIIIIIIIIIIIIID5+,,,,,,,       ",
"      ,,,,,,,,,,,,,,<OOiKIIIIIIIIIIIIIIIIIIIIIIIIIIIIIIIIIII1#,,,;*GIIIIIIIIIIIIIIIIIIIIIIIIIIIIIIIIIIIIIIIIIIIIIwo,,,,,,,      ",
"      ,,,,,,,,,,,,<,O1CIIIIIIIIIIIIIIIIIIIIIIIIIIIIIIIIIIIIIzo,,,;&FIIIIIIIIIIIIIIIIIIIIIIIIIIIIIIIIIIIIIIIIIIIIII2O<,,,,,      ",
"      ,,,,,,,,>,,<>XtIIIIIIIIIIIIIIIIIIIIIIIIIIIIIIIIIIIIIIICO;,,;*FIIIIIIIIIIIIIIIIIIIIIIIIIIIIIIIIIIIIIIIIIIIIIIHO=,,,,,      ",
"     ,,,,,,,,,,,,;ogIIIIIIIIIIIIIIIIIIIIIIIIIIIIIIIIIIIIIIIIF&;,,;*FIIIIIIIIIIIIIIIIIIIIIIIIIIIIIIIIIIIIIIIIIIIIIIIfO,,,,,,     ",
"     ,,,,,,,,,,,>XkIIIIIIIIIIIIKBcjhghggggghgggggghgicIIIIIIF*;,,;*FIIIIIIs30000000000000000000000000000tjHIIIIIIIIH#*,,,,,     ",
"     ,,,,,,,,,,,XjIIIIIIIIIIPc9>OOOOOOOOOOOOOOOOOOOO.2IIIIIIF&;,>;*FIIIIII5X@@@@O@@O@@@OO@@@O@@@O@@O@O@OOo+jIIIIIIII0@,,,,,     ",
"    ,,,,,,,,,,,oiIIIIIIIIIIk-o@*>,,,<,,<,<,,<,,,<,,<OeIIIIIIF*=,,;*FIIIIIIeO,<,,,<,,<,,<-,,<,,,,<,,<,,,,,<&XzIIIIIIIjO,,,,,     ",
"    ,,,,,,,,,<O5IIIIIIIIIZ2X&,,,,,,,,,,,,,,,,,,,,,,,OeIIIIIIF*;,,=*FIIIIIIe@,,,,,,,,,,,,,,,,,,,,,,,,,,,,,,,&OHIIIIIIMO,,,,,,    ",
"    ,,,,,,,,,*#HIIIIIIIIbO@,,,,,,,,,,,,,,,,,,,,,,,,<OqIIIIIIF*;,,;*FIIIIIIeO,,,,,,,,,,,,,,,,,,,,,,,,,,,,,,,<ozIIIIIIA@;,,,,,    ",
"    ,,,,,,,,,ozIIIIIIIIko&<,,,,,,,,,,,,,,,,,,,,,,,,,OqIIIIIIF*;,,;*FIIIIIIeO<,,,,,,,,,,,,,,,,,,,,,,,,,,,,,,,OrIIIIIIG=;,,,,,    ",
"   ,,,,,,,,<@1IIIIIIIIco;<,,,,,,,,,,,,>,,,,,,,,,,,,<@qIIIIIIF&;,,;*FIIIIIIe@,,,,,,>,,,,,,,,,,,,,,,,,,,,,,,,,@0IIIIIIK:&,,,,,    ",
"   ,,,,,,,,,onIIIIIIIAo*,,,,,,,,,,,,,,,,,,,,,,,,,,,,OeIIIIIIF&;,>;*FIIIIIIeO,,,,,,,,,,,,,,,,,,,,,,,,,,,,,,,,@7IIIIIIK,&,,,,,,   ",
"   ,,,,,,,,#<IIIIIIIP-O<>,,,,,,,,,,,,,,,,,,>,,,,,,,,OqIIIIIIF*=,,=*FIIIIIIeO<,,,,,,,,,,,,,,,,,,,,,,,,,,,,,,<O9IIIIIIJ>&,,,,,,   ",
"   ,,,,,,,,ohIIIIIIIgo<,,,,,,,,,,,,,,,,,,,,,,,,,,,,,OqIIIIIIF*;,,=*FIIIIIIe@,,,,,,,,,,,,,,,,,,,,,,,,,,,,,,,<OuIIIIIIF&;,,,,,,   ",
"   ,,,,,,,;@DIIIIIIJ+*,,,,,,,,,,,,,,,,,,,,,,,,,,,,,,@qIIIIIIF*;,,;*FIIIIIIe@,,,,,,,,,,,,,,,,,,,,,,,,,,,,,,,,oMIIIIIIV+;,,,,,,   ",
"   ,,,,,,,@4IIIIIIIgo<,,,,,,,,,,,,,,,,,,,,,,,,,,,,,,OeIIIIIIF*;,,;*FIIIIIIeO,,,,,,,,,,,,,,,,,,,,,,,,,,,,,,<O1IIIIIIIbO,,,,,,,   ",
"   ,,,,,,,OpIIIIIII<@,,,,,,,,,,,,,,,,,,,,,,,,,,,,,,,OeIIIIIIF&;,,;*FIIIIIIeO,,,,>,,,,,,,,,::,,,,,,,:,:,,>=o$GIIIIIIIuO<,,,,,,   ",
"  ,,,,,,,,OvIIIIIIAO>,,,,,,,,,,,,,,,,,,,,,,,,,,,,,,<OqIIIIIIF&;,>;*FIIIIII2.OOOOOOOOOOOoOOOOOOOOOOOOOOOOO#wHIIIIIIII<#,,,,,,,,  ",
"  ,,,,,,,,ONIIIIIIxO,:,,,,,,,,,,,,,,,,,,,-,,,,,,,,,,@qIIIIIIF&=,,;*FIIIIIINcnbbbbbbbbbbbbbbbbbbbbbbbbbbbNJIIIIIIIIINO,,,,,,,,,  ",
"  ,,,,,,,;#SIIIIIIuO,,,,,,,,,,,,,,,,,>,,>,,,,,,,,,,<OqIIIIIIF*;,,=*FIIIIIIIIIIIIIIIIIIIIIIIIIIIIIIIIIIIIIIIIIIIIIII6@,,,,,,,,,  ",
"  ,,,,,,,;;GIIIIIIq@,,,,,,,,,,,,,,,,,,,,,,,,,,,,,,,,OqIIIIIIF*;,,;*FIIIIIIIIIIIIIIIIIIIIIIIIIIIIIIIIIIIIIIIIIIIIIIbo,,,,,,,,,,  ",
"  ,,,,,,,*>KIIIIII0O<,,,,,,,,,,,,,,,,,,,,,,,,,,,,,,,@eIIIIIIF*;,,;*FIIIIIIIIIIIIIIIIIIIIIIIIIIIIIIIIIIIIIIIIIIIIIMo;,,,,,,,,,,  ",
"  ,,,,,,,&,KIIIIII0@,,,,,,,,,,,,,,,,,,,,,,,,,,,,,,,,OqIIIIIIF*=,,;#FIIIIIIIIIIIIIIIIIIIIIIIIIIIIIIIIIIIIIIIIIIIIINo;,,,,,,,,,,  ",
"  ,,,,,,,&>JIIIIII0@,,,,,,,,,,,,,,,,,,,,,,,,,,,,,,,,OqIIIIIIF*=,,;*FIIIIIIIIIIIIIIIIIIIIIIIIIIIIIIIIIIIIIIIIIIIIIIno,,,,,,,,,,  ",
"  ,,,,,,,;&DIIIIIItO<,,,,,,,,,,,,,>,,,,,,,,,,,,,,,,,@qIIIIIIF*;>,;*FIIIIIIIIIIIIIIIIIIIIIIIIIIIIIIIIIIIIIIIIIIIIIII0O,,,,,,,,,  ",
"  ,,,,,,,>+VIIIIIIhO,,,,,,,,,,,,,,,,,,,,,,,,,,,,,,,,OqIIIIIIF*;,,=*FIIIIIIMkcxxcxxccxcxxxxxxxxccxxxxxxxxmDIIIIIIIIIVO,,,,,,,,,  ",
"  ,,,,,,,,OnIIIIIImO,,,,,,,,,,,,,,,,,,,,,,,,,,,,,,,<@qIIIIIIF*;,,;*FIIIIII2.OOOOOOoOoOOOOOOoOOoOOoOOOOOoO#9DIIIIIIII1@<,,,,,,,  ",
"   ,,,,,,,OhIIIIIIK=*,,,,,,,,,,,,,,,,,,,,,,,,,,,,,,,OeIIIIIIF*;,,;*FIIIIIIe@,,,,,,,,,,,,,>,,<,,,<,,,>,,,,;o+SIIIIIIIdO,,,,,,,,  ",
"   ,,,,,,,O0IIIIIIIeO,,,,,,,,,,,,,,,,,,,,,,,,,,,,,,,OeIIIIIIF*=,,;*FIIIIIIeO,,,,,,,,,,,,,,,,,,,,,,,,,,,,,,<O<PIIIIIInO,,,,,,,   ",
"   ,,,,,,,*;KIIIIIIVO>,,,,,,,,,,,,,,,,,,,,,,,,,,,,,<OqIIIIIIF*;,,;*FIIIIIIwO,,,,,,,,,,,,,,,,,,,,,,,,,,,,,,,,oMIIIIIIV@;,,,,,,   ",
"   ,,,,,,,,onIIIIIII5O<,,,,,,,,,,,,,,,,,,,,,,,,,,,,<OeIIIIIIF*;>,;*FIIIIIIe@,,,,,,,,,,,,,,,,,,,,,,,,,,,,,,,<OpIIIIIIF*;,,,,,,   ",
"   ,,,,,,,,@qIIIIIIIAo>,,,,,,,,,,,,,,,,,,,,,,,,,,,,,@qIIIIIIF*;,,;*FIIIIIIeO,,,,,,,,,,,,,,,,,,,,,,,,,,,,,,,,@9IIIIIIH>*,,,,,,   ",
"   ,,,,,,,,>OFIIIIIIIgX,,,,,,,,,,,,,,,,,,,,,,,,,,,,,OqIIIIIIF*;,,;*FIIIIIIeO,,,,,,,,,,,,,,,,,,,,,,,,,,,,,,,,O7IIIIIIK<&,,,,,,   ",
"   ,,,,,,,,<OtIIIIIIII0o<,,,,,,,,,,,,,,,,,,,,,,,,,,,OqIIIIIIF*;,,;*FIIIIIIeO,,,,,,,,,,,,,,,,,,,,,,,,,,,,,,,,@8IIIIIIK>*,,,,,    ",
"    ,,,,,,,,>oDIIIIIIIP2o,,,,,,,,,,,>,,,,,,,,,,,,,,<@qIIIIIIF*;,,;#FIIIIIIeO<,,,,,,,,,,,,,,,,,,,,,,,,,,,,,,,OtIIIIIIG*;,,,,,    ",
"    ,,,,,,,,,O5IIIIIIIIP6X>,,,,,,,,,,,,,,,,,,,,,,,,,OeIIIIIIF#;,,;*FIIIIIIe@,,,,,,,,,,,,,,,,,,,,,>,,,>,>,,,,OzIIIIIIC#;,,,,,    ",
"    ,,,,,,,,,,ojIIIIIIIIIioO,,,,,,,,,,,,,,,,,,,,,,,,OqIIIIIIF*;,,;*FIIIIIIeO,,,,,,,,,,,,,,,,,,,,,,,,,,,-,,<##KIIIIIIMO,,,,,,    ",
"    ,,,,,,,,,,;oCIIIIIIIIIN2o@>,,,,,,,,,,,<,,,,,,,,,@qIIIIIIF*;,,;*FIIIIIIe@<<,,<,,<,,,<,,,,<,,,<,,<<,,<<,+XcIIIIIIIhO,,,,,,    ",
"     ,,,,,,,,,,##GIIIIIIIIIIc5+o@@@&&&#&#&##&#&##&#&o8IIIIIIF*;,,;*FIIIIII5.OOOOO@OO@OO@OOOO@OOO@OOOOOOOOo$cIIIIIIII6@,,,,,     ",
"     ,,,,,,,,,,<@$HIIIIIIIIIIIZzy64<,<<,<,<<,<<,<<,<#rIIIIIIF*;,,;*FIIIIIIg8qqqqqqqqqqqqqqeeeeqqqeeqeeqeicKIIIIIIIIG#;,,,,,     ",
"     ,,,,,,,,,,,<@%GIIIIIIIIIIIIIIILLLLLLLLLLLLLLLLLKPIIIIIIF&;,>;*FIIIIIIIIIIIIIIIIIIIIIIIIIIIIIIIIIIIIIIIIIIIIIIIio<,,,,,     ",
"     ,,,,,,,,,,,,<O$CIIIIIIIIIIIIIIIIIIIIIIIIIIIIIIIIIIIIIIIS#;,,=*FIIIIIIIIIIIIIIIIIIIIIIIIIIIIIIIIIIIIIIIIIIIIIIGO;,,,,,      ",
"      ,,,,,,,,,,,,<@OkIIIIIIIIIIIIIIIIIIIIIIIIIIIIIIIIIIIIIImO,,,;*FIIIIIIIIIIIIIIIIIIIIIIIIIIIIIIIIIIIIIIIIIIIIII1O<,,,,,      ",
"      ,,,,,,,,,,,,,<=o8SIIIIIIIIIIIIIIIIIIIIIIIIIIIIIIIIIIIItO<,,;*GIIIIIIIIIIIIIIIIIIIIIIIIIIIIIIIIIIIIIIIIIIIIP7O<,,,,,,      ",
"       ,,,,,,,,,,,,,,,OOiGIIIIIIIIIIIIIIIIIIIIIIIIIIIIIIIIISO;,,,;ODIIIIIIIIIIIIIIIIIIIIIIIIIIIIIIIIIIIIIIIIIIIC1O,,,,,>,       ",
"       ,,,,,,,,,,,,,,,<;o#yNPIIIIIIIIIIIIIIIIIIIIIIIIIIIIIS$#,,,,,OyIIIIIIIIIIIIIIIIIIIIIIIIIIIIIIIIIIIIIIIIICyOO<,,,,,,,       ",
"       ,,,,,,,,,>,,,,,,,<=OO<uvVGIIIIIIIIIIIIIIIIIIIIIIICf@#,:,,,,,OyVGFFFFFFFFFFFFFFFFFFFFFFFFFFFFFFFFFSBbd2@O;,,,,,,,,        ",
"        ,,,,,,,,,,,,,,,,,,,,#OO@;4555555555555555555555<#O*<,,,,,,<,O@*&&*******&****************&*&***&&OOO@;<,,,,,,,,,        ",
"        ,,,,,,,,,,,,,,,,,,,,,,,>*&@@@@@@@@@@@@@@@@@@@@@&;,,,,,,,,,,,,>;;;;;;*;=;;;;;=;;;;;=;;;==;;;;;;;;;,,,,,,,,,,,,,,,        ",
"         ,,,,,,,,,,,,,,,,,,,,,,,,,,,,,,,,,,,,,,,,,,,,,,,,,,,,,,,,,,,,,,,,,,,,,,,,,,,,,>,,,,,,,,,,,,,>,,,,,,,,,,,,,,,,,,         ",
"         ,,,,,,,,,,,,,,,,,,,,,,,,,,,,,,,,,,,,,,,,,,,,,,,,,,,,,,,,,,,,,,,,,,,,,,,,,,,,,,,,,,>,,,,,,,,,,,,,,,,,,,,,,,,,,,         ",
"          ,,,,,,,,,,,,,,,,,,,,,,,,,,,,,,,,,,,,,,,,,,,,,,,,,,,,,,,,,,,,,,,,,,,,,,,,,,,,,,,,,,,,,,,,,,,,,,,,,,,,,,,,,,,,          ",
"          ,,,,,,>,,,,,,,,,,,,,,,,,,,,,,,,,,,,,,,,,,,,,,,,,,,,,,,,,,,,,,,,,,,,,,,,,,,,>,,,,,,,,,,,,,,,,,,,,,,,,,,,,,,,,          ",
"           ,,,,,,,,,,,,,,,,,,,,,,,,,,,,,,,,,,,,,,,,,,,,,,,,,,,,,,,,,,,,,,,,,,,,,,,,,,,,,,,,,,,,,,,,,,,,,,,,,,,,,,,,,,           ",
"            ,,,,,,,,,,,,,,,,,,,,,,,,,,,,,,,,,,,,,,,,,,,,,,,,,,,,,,,,>,,,,,,,,,,,,,,,,,,,,,,,,,,,>,,,,,,,,,,,,,,>,,,,            ",
"            ,,,,,,,,,,,,,,,,,,,,,,,,,,,,,,,,,:,,,,,,,,,,,,,,,,,,,,,,,,,,,,,,,,,,,,,,,,,,,,,,,,,,,,,,,,,,,,,,,,,,,,,,            ",
"             ,,,,,,,,,,,,,,,,,,>,,,,,,,,,,,,,,,,,,,,,,,,,,,,,,>,,,,,,,,,,,,,,>,,,,,,,,,,,,,,,,,,,,,,,,,,,,,,,,,,,,,             ",
"              ,,,,,,,,,,>,,,,,,,,,,,,,,,,,,,,,,,,,,,,,,,,,,,,,,,,,,,,,,,,,,,,,,,,,,,,,,,,,,,,,,,,,,,,,,,,,,,,,,,,,              ",
"              ,,,,,,,,,,,,,,,,,,,,,,>,,,,,,,,,,,,,,,,,,,,,,,,,,,,,,,,,,,,,,,,,,,>,,,,,,,,,,,,,,,,,,,,,,,,,,,,,,,,,              ",
"               ,,,,,,,,,,,>,,,,,,,,:,,,,,,,,,,,,,,,,,>,,,,,,,,,,,,,,,,,,,,,,,,,,,,,,,,,,,>,,,,,,,,,,,,,,,,,,,,,,,               ",
"                ,,,,,,,,,,,,,,,,,,,,,,,,,,,,,,,,,,,,,,,,,,,,,,,,,,,,,,,,,,,,,-,,,,,,,,,,,,,,,,,,,,,,,,,,,,,,,,,,                ",
"                 ,,,,,,,,,,,,,,,,,,,,,,,,>,,,,,,,,,,,,,,,,,,,,,,,,,,,,,,,,,,,,,,,,,,,,,,,,,,,,,,,>,,,,,,,,,,,,,                 ",
"                 ,,,,,,,,,,,,,,,,,,,,,,,,,,,,,,,,,,,,,,,,,,,>,,,,,,,,,,,,>,,,,,,,,,,,,,,,>,,,,,>,,,,,,,,,,,,,,                  ",
"                  ,,,,,,,,,,,,,,,,,,,,,,,,,,,,,,,,,,,,,,,,,,,,,,,,,,,,,,,,,,,,,,,,,,,,,,,,,,,,,,,,,,,,>,,,,,,,                  ",
"                   ,,,,,,,,,,,,,,,,,,,,,,,,,,,,,,,,,,,,,,,,,,,,,,,,,,,>,,,,,,,,,,,,,,,,,,,,,,,,,,,,,,,,,,,,,,                   ",
"                    ,,,,,,,,,,,,,,,,,,,,,,,,,,,,,,,,,,,,,,,,,,,,,,,,,,,,,,,,,,,,,,,,,,,,,,,,,,,,,,,,,,,,,,,,                    ",
"                     ,,,,,,>,,,,,,,,,,,,,,,,,,,,,:,,,,>,,,,,,,,,,,,,,,,,,,,,,,,,,,,,,,,,,,,,,,,,,,,,,,,,,,,                     ",
"                      ,,,,,,,,,,,,,,,,,,:,,,,,,,,,,,,,,,,,,,,,,,,,,,,,,,,,,,,,,,,,,,,,,,,,,,,,,,,,,,,,,,,,                      ",
"                       ,,,,,,,,,,,,,,>,,,,,,,,,>,,,,,,,,,,,,,,,:,,,,,,,,,,,,,,,,,,,,,>,,,,,,,,,,,,,,,,,,                        ",
"                         ,,,,,,,,,,,,,,,,,,,,,,,,,,,,,,,,,,,,,,,,,,,,,,,,,,,,,,,,,,,,,,,,,,,,,,,,,,,,,,                         ",
"                          ,,,,,,,,,,,,,,,,,,,,,,,,,,,,,,,,,,,,,,,,,-,,,,,,,,,,,,,,,,,,,,,,,,,,,,,,,,,,                          ",
"                           ,,,,,,,,,,,,,,,,,,,,,,,,,,,,,,,,,,:,,,,,,,,,,,,,,,,,,,,,,,,,>,,,,,,,,,,,,,                           ",
"                            ,,,,,,,,,,,,,,,,,,,,,,,,,,,,,,,,,,,,,,,,,,,,,,,,,,,,,,,,,,,,,,,,,,,,,,,                             ",
"                              ,,,,,,,,,,,,,,,,,,,,,,,,,,,,,,,,,,,,,:,,,,,,,,,,,,,,,,,,,,,,,,,,,,,,                              ",
"                               ,,,,,,,,,,,,,,,,,,,,,,,,,,,,,,,,,,,,,,,,,,,,,,,,,,,,,,,,,>,,,,,,,                                ",
"                                 ,,,,,,,,,,,,,,,:,,,,,,,,,,,,,,,,,,,,,,,,,,,,,,,,,,,,,,,,,,,,,,                                 ",
"                                   ,,,,,,:,,,,,,,,,,,,,>,,,,,,,,,,,,,,:,,,,,,:,,,,,,,,,,,,,,,                                   ",
"                                     ,,,,,,,,,,,,,,,,,,,,,,,,,,,,,,,,,,,,,,,,,,,,,,,,,,,,,,                                     ",
"                                       ,,,,,,,,,,,,,,,,,,,,,,,,,,,,,,,,,,,,,,,,,,,,,,,,,,                                       ",
"                                         ,,,,,,,,,>,,,,,,,,,,,,,,,,,,,,,,,,,,,,,,,,,,,                                          ",
"                                            ,,,,,,,,,,,,,,,,,,,,,,,,,,,,,,,,,,,>,,,,                                            ",
"                                               ,,,,,,,,,,,,,,,,,,,,,,,,,,,,,,,,,                                                ",
"                                                    ,,,,,,,,,,,,,,,,,,,,,,,,                                                    ",
"                                                          ,,,,,,,,,,,,                                                          ",
"                                                                                                                                ",
"                                                                                                                                "
};
