/* XPM */
static char *diabase161695139812[] = {
/* columns rows colors chars-per-pixel */
"16 16 123 2 ",
"   c None",
".  c #004DDD",
"X  c #004DDE",
"o  c #004FDE",
"O  c #0067E2",
"+  c #0069E3",
"@  c #0169E3",
"#  c #006CE4",
"$  c #0071E4",
"%  c #0071E5",
"&  c #0072E4",
"*  c #0073E5",
"=  c #0074E5",
"-  c #0076E6",
";  c #007AE6",
":  c #017BE6",
">  c #027BE6",
",  c #0479E6",
"<  c #057BE6",
"1  c #027CE6",
"2  c #037CE7",
"3  c #047DE7",
"4  c #0B78E6",
"5  c #117BE6",
"6  c #0A81E7",
"7  c #0E80E7",
"8  c #0B81E8",
"9  c #0D83E8",
"0  c #0F84E8",
"q  c #1082E7",
"w  c #1285E8",
"e  c #1385E8",
"r  c #1988E9",
"t  c #1B89E9",
"y  c #1A8AE9",
"u  c #1B8BE9",
"i  c #1D88E8",
"p  c #1C88E9",
"a  c #1C89E9",
"s  c #1F89E9",
"d  c #1D8AE9",
"f  c #188DEA",
"g  c #1B8EEA",
"h  c #1F8CE9",
"j  c #1C8CEA",
"k  c #218BE9",
"l  c #238BE9",
"z  c #238CE9",
"x  c #3A8AEA",
"c  c #3394EB",
"v  c #3C97EC",
"b  c #3F98EC",
"n  c #4191EA",
"m  c #4199EC",
"M  c #479DED",
"N  c #459EED",
"B  c #469FED",
"V  c #4A9EED",
"C  c #4D9FED",
"Z  c #49A0ED",
"A  c #4DA1ED",
"S  c #4CA1EE",
"D  c #50A0ED",
"F  c #50A2EE",
"G  c #54A0ED",
"H  c #55A3EE",
"J  c #56A4EE",
"K  c #5BA4EE",
"L  c #5BA5EF",
"P  c #67A2EE",
"I  c #68A3EE",
"U  c #61A9EF",
"Y  c #64A8EF",
"T  c #72AFF0",
"R  c #71B3F1",
"E  c #72B2F1",
"W  c #73B3F1",
"Q  c #74B0F0",
"!  c #74B4F1",
"~  c #75B4F1",
"^  c #7AB3F0",
"/  c #7DB1F0",
"(  c #7BB7F2",
")  c #7BB8F2",
"_  c #81AFF0",
"`  c #81B0F1",
"'  c #83B3F0",
"]  c #82BBF2",
"[  c #82BCF2",
"{  c #8DC4F4",
"}  c #8EC5F4",
"|  c #91C1F4",
" . c #92C2F4",
".. c #91C6F5",
"X. c #98C5F4",
"o. c #99C5F4",
"O. c #99CBF5",
"+. c #9ACCF5",
"@. c #B9D4F7",
"#. c #BAD4F7",
"$. c #BED6F7",
"%. c #BED6F8",
"&. c #BFDDF9",
"*. c #C0D6F7",
"=. c #C1D6F8",
"-. c #C1D7F8",
";. c #C1D8F8",
":. c #C2DCF8",
">. c #C2DDF9",
",. c #C0DEF9",
"<. c #CDE3FA",
"1. c #D5E6FA",
"2. c #D6E7FB",
"3. c #D2E8FB",
"4. c #DFECFB",
"5. c #E4ECFB",
"6. c #E6EDFB",
"7. c #E3EBFC",
"8. c #E6ECFC",
"9. c #E9EDFB",
"0. c #EAEFFC",
"q. c #F8F6FD",
"w. c #F9F6FE",
/* pixels */
"            t t t t             ",
"        t t t t t t t t         ",
"      t d d d t d d d h d       ",
"    h 0 3 3 3 t w : : : : 6     ",
"  h % i B Z c 7 d b S V F z ;   ",
"  % Y 4.*.$.9.L ! 0.%.>.;.5.F   ",
"< G w.n 5 + ' ..} I . # . _ 3.% ",
"% &.^ + f % ! [ ^ <. .+.o.2.E - ",
"& >.Q + h - ! ] ) <. .+.X.2.E - ",
"< K w.x 4 O / ..} I o # . ` 3.% ",
"  % T 5.@.@.8.U R 0.%.;.-.7.C   ",
"  t - z G J m 9 d v Z B S k ;   ",
"    h 0 ; ; : t e ; 3 ; ; 9     ",
"      t d d d d d d d d d       ",
"        t t t t d t d t         ",
"            t t t t             "
};
