<?xml version="1.0" standalone="yes"?>
<svg width="256" height="256">
<path style="fill:#0031a5; stroke:none;" d="M0 0L0 44L31 44L31 0L0 0z"/>
<path style="fill:#1619bc; stroke:none;" d="M31 0L31 44L32 44C32 31.5196 35.8102 11.4634 31 0z"/>
<path style="fill:#2600e3; stroke:none;" d="M32 0L32 44L0 44L0 46L27 46L27 50L0 50L0 53L23 53L23 55L0 55L0 66L15 66L15 68L0 68L0 69L14 69C10.857 74.1238 5.41071 73 0 73L0 80L9 80L9 81L0 81L0 84L7 84L7 85L0 85L0 92L5 92L5 93L0 93L0 163L5 163L5 164L0 164L0 171L7 171L7 172L0 172L0 175L9 175L9 176L0 176L0 183C5.41071 183 10.857 181.876 14 187L0 187L0 188L15 188L15 190L0 190L0 201L23 201L23 203L0 203L0 206L27 206L27 209L0 209L0 212L32 212L32 256L163 256L163 251L164 251L164 256L175 256L175 247L176 247L176 256L183 256L183 244L184 244L184 256L187 256L187 241L189 241L189 256L199 256L199 234L201 234L201 256L206 256L206 229L208 229L208 256L212 256L212 225L213 225L213 256L224 256L224 212L256 212L256 210L229 210L229 206L256 206L256 203L233 203C237.062 196.378 249.089 199 256 199L256 189L242 189L242 187L256 187L256 184L244 184L244 183L256 183L256 176L247 176L247 175L256 175L256 172L249 172L249 171L256 171L256 164L251 164L251 163L256 163C256 159.637 256.716 156.796 253 156L253 155L256 155L256 114C256 109.912 257.853 102.04 253 101L253 100L256 100L256 93L251 93L251 92L256 92L256 85L249 85L249 84L256 84L256 81L247 81L247 80L256 80L256 73L244 73L244 72L256 72L256 69L242 69L242 67L256 67L256 57C249.089 57 237.062 59.6218 233 53L256 53L256 50L229 50L229 46L256 46L256 44L224 44L224 0L213 0L213 32L212 32L212 0L208 0L208 27L206 27L206 0L201 0L201 22L199 22L199 0L189 0L189 15L187 15L187 0L184 0L184 12L183 12L183 0L176 0L176 9L174 9L174 0L164 0L164 5L163 5L163 0L32 0z"/>
<path style="fill:#690bf0; stroke:none;" d="M163 0L163 5L164 5L163 0z"/>
<path style="fill:#650bed; stroke:none;" d="M174 0L174 9L176 9L176 0L174 0z"/>
<path style="fill:#6a0bec; stroke:none;" d="M183 0L183 12L184 12L183 0z"/>
<path style="fill:#24068f; stroke:none;" d="M187 0L187 15L189 15L189 0L187 0z"/>
<path style="fill:#1b10a9; stroke:none;" d="M199 0L199 22L201 22L201 0L199 0z"/>
<path style="fill:#5306ee; stroke:none;" d="M206 0L206 27L208 27L208 0L206 0z"/>
<path style="fill:#122ade; stroke:none;" d="M212 0L212 32L213 32L212 0z"/>
<path style="fill:#132ff0; stroke:none;" d="M224 0L224 44L225 44C225 31.5195 228.81 11.4634 224 0z"/>
<path style="fill:#195dff; stroke:none;" d="M225 0L225 44L256 44L256 0L225 0z"/>
<path style="fill:#8b7fe4; stroke:none;" d="M115 5L115 6L120 6L115 5z"/>
<path style="fill:#ffffe2; stroke:none;" d="M120 5.42438C94.0326 8.84395 70.6646 15.6703 50 32.6157C37.9899 42.4643 28.1241 54.5522 20.4275 68C-6.01436 114.2 3.33058 179.217 42.0394 215.83C70.0601 242.334 107.972 253.834 146 248.711C162.986 246.423 179.564 240.09 194 230.947C281.33 175.635 260.959 35.6224 160 9.62962C147.302 6.36053 133.132 3.69505 120 5.42438z"/>
<path style="fill:#8a7de3; stroke:none;" d="M135 5L135 6L140 6L135 5z"/>
<path style="fill:#8d80e7; stroke:none;" d="M108 6L108 7L111 7L108 6z"/>
<path style="fill:#8b80e3; stroke:none;" d="M145 6L145 7L148 7L145 6z"/>
<path style="fill:#8980e4; stroke:none;" d="M102 7L102 8L105 8L102 7z"/>
<path style="fill:#bebdeb; stroke:none;" d="M124 7L124 8L132 8L124 7z"/>
<path style="fill:#8278e4; stroke:none;" d="M151.667 7.33333L152.333 7.66667L151.667 7.33333z"/>
<path style="fill:#9d8dec; stroke:none;" d="M98.6667 8.33333L99.3333 8.66667L98.6667 8.33333z"/>
<path style="fill:#8c7ee4; stroke:none;" d="M112 8L112 9L117 9L112 8z"/>
<path style="fill:#2600e3; stroke:none;" d="M117 8.42438C97.027 11.079 79.0119 16.2129 62 27.3441C-0.182247 68.0314 -10.031 158.861 42.0394 211.985C69.7526 240.26 109.395 251.191 148 245.715C163.09 243.574 178.029 237.671 191 229.796C203.15 222.419 214.267 212.31 222.87 201C274.12 133.625 239.609 32.1831 157 11.6265C144.16 8.43135 130.209 6.66879 117 8.42438z"/>
<path style="fill:#8f80e4; stroke:none;" d="M139 8L139 9L143 9L139 8z"/>
<path style="fill:#8d80e9; stroke:none;" d="M155 8L155 9L158 9L155 8z"/>
<path style="fill:#9d8dea; stroke:none;" d="M94.6667 9.33333L95.3333 9.66667L94.6667 9.33333z"/>
<path style="fill:#8d80e8; stroke:none;" d="M106 9L106 10L109 10L106 9z"/>
<path style="fill:#9080ed; stroke:none;" d="M147 9L147 10L150 10L147 9z"/>
<path style="fill:#8c80e9; stroke:none;" d="M159.667 9.33333L160.333 9.66667L159.667 9.33333z"/>
<path style="fill:#bab5eb; stroke:none;" d="M91.6667 10.3333L92.3333 10.6667L91.6667 10.3333z"/>
<path style="fill:#8880e7; stroke:none;" d="M101.667 10.3333L102.333 10.6667L101.667 10.3333z"/>
<path style="fill:#8f80eb; stroke:none;" d="M152.667 10.3333L153.333 10.6667L152.667 10.3333z"/>
<path style="fill:#6757ea; stroke:none;" d="M163.667 10.3333L164.333 10.6667L163.667 10.3333z"/>
<path style="fill:#7a72e8; stroke:none;" d="M97.6667 11.3333L98.3333 11.6667L97.6667 11.3333z"/>
<path style="fill:#8980e9; stroke:none;" d="M156 11L156 12L159 12L156 11z"/>
<path style="fill:#685bec; stroke:none;" d="M166.667 11.3333L167.333 11.6667L166.667 11.3333z"/>
<path style="fill:#c1bfe9; stroke:none;" d="M85.6667 12.3333L86.3333 12.6667L85.6667 12.3333z"/>
<path style="fill:#8780ea; stroke:none;" d="M93.6667 12.3333L94.3333 12.6667L93.6667 12.3333z"/>
<path style="fill:#9a89eb; stroke:none;" d="M160.667 12.3333L161.333 12.6667L160.667 12.3333z"/>
<path style="fill:#7369ec; stroke:none;" d="M90.6667 13.3333L91.3333 13.6667L90.6667 13.3333z"/>
<path style="fill:#7268ec; stroke:none;" d="M87.6667 14.3333L88.3333 14.6667L87.6667 14.3333z"/>
<path style="fill:#968aed; stroke:none;" d="M181 17L182 18L181 17z"/>
<path style="fill:#9287ed; stroke:none;" d="M183 18L184 19L183 18z"/>
<path style="fill:#8476ed; stroke:none;" d="M185 19L186 20L185 19z"/>
<path style="fill:#8677ed; stroke:none;" d="M181 20L182 21L181 20z"/>
<path style="fill:#8679ee; stroke:none;" d="M66 21L67 22L66 21z"/>
<path style="fill:#9186ee; stroke:none;" d="M183 21L184 22L183 21z"/>
<path style="fill:#8171ee; stroke:none;" d="M68 23L69 24L68 23z"/>
<path style="fill:#8e84ee; stroke:none;" d="M190 25L191 26L190 25z"/>
<path style="fill:#877ded; stroke:none;" d="M195 25L196 26L195 25z"/>
<path style="fill:#8377ee; stroke:none;" d="M63 26L64 27L63 26z"/>
<path style="fill:#7666ee; stroke:none;" d="M193 27L194 28L193 27z"/>
<path style="fill:#7b6fed; stroke:none;" d="M198 27L199 28L198 27z"/>
<path style="fill:#7d71ed; stroke:none;" d="M60 28L61 29L60 28z"/>
<path style="fill:#8276ee; stroke:none;" d="M196 29L197 30L196 29z"/>
<path style="fill:#8075ee; stroke:none;" d="M202 30L203 31L202 30z"/>
<path style="fill:#8276ee; stroke:none;" d="M50 32L51 33L50 32z"/>
<path style="fill:#7365ef; stroke:none;" d="M52 34L53 35L52 34z"/>
<path style="fill:#8e80e5; stroke:none;" d="M87 35L87 36L110 36L87 35M146 35L146 36L168 36L146 35z"/>
<path style="fill:#988eec; stroke:none;" d="M208 35L209 36L208 35z"/>
<path style="fill:#ffffe3; stroke:none;" d="M131 51L129 51C127.495 70.8906 100.292 48.2565 122 48C119.715 47.0296 116.436 47.2331 114.603 45.3966C111.718 42.5048 113.836 37.6621 108.941 36.3179C104.441 35.0821 89.05 34.1568 85.6034 37.6034C82.2676 40.9392 82.2776 61.2762 86.3179 63.9722C94.5674 69.4771 108.673 63.3849 116.09 60.5988C123.915 57.6591 130.863 62.6301 131 51z"/>
<path style="fill:#9289eb; stroke:none;" d="M144 36L145 37L144 36z"/>
<path style="fill:#ffffe4; stroke:none;" d="M125 50L126 50C127.322 41.5352 135.207 43 142 43L142 53L134 53L134 55L142 55C142.059 61.5103 145.253 62.7553 147.4 68.1289C150.502 75.8909 145.269 82.8614 157 83L157 81C136.899 79.8956 159.743 52.2361 160 74C161.086 71.4417 160.779 67.7433 163.318 66.027C165.735 64.3929 169.158 65.4022 170.972 62.6821C173.549 58.819 173.573 40.9904 170.258 37.6034C162.852 30.0385 145.973 38.8387 138.896 40.686C135.282 41.6293 130.585 39.8497 127.318 42.0278C124.713 43.7645 125.032 47.267 125 50z"/>
<path style="fill:#7e72ef; stroke:none;" d="M205 36L206 37L205 36z"/>
<path style="fill:#8c80eb; stroke:none;" d="M88 37L88 38L109 38L88 37M147 37L147 38L168 38L147 37z"/>
<path style="fill:#0300e5; stroke:none;" d="M87.6034 39.0278C84.9272 41.1473 86 47.0196 86 50C86 53.1215 84.9543 58.7786 87.0278 61.3966C89.4555 64.4619 106.422 64.3284 109.397 61.9722C112.073 59.8526 111 53.9804 111 51C111 47.8785 112.046 42.2214 109.972 39.6034C107.544 36.5381 90.5783 36.6716 87.6034 39.0278z"/>
<path style="fill:#2600e3; stroke:none;" d="M145.603 39.0278C142.927 41.1474 144 47.0196 144 50C144 53.1215 142.954 58.7786 145.028 61.3966C147.493 64.5096 165.367 64.372 168.397 61.9722C171.073 59.8527 170 53.9804 170 51C170 47.8785 171.046 42.2214 168.972 39.6034C166.507 36.4904 148.633 36.628 145.603 39.0278z"/>
<path style="fill:#9788ee; stroke:none;" d="M171 38L172 39L171 38z"/>
<path style="fill:#9b8ff0; stroke:none;" d="M83 39L83 62L84 62L83 39z"/>
<path style="fill:#2600e3; stroke:none;" d="M110 62C110 56.8683 112.249 44.7411 108.972 40.6034C106.601 37.6095 90.399 37.6095 88.0278 40.6034C85.955 43.2205 86.9986 48.8794 87 52C87.0012 54.6168 86.2505 59.1087 88.6034 60.9722C92.7412 64.2494 104.868 62 110 62z"/>
<path style="fill:#aba6ee; stroke:none;" d="M113 39L113 46L114 46L113 39z"/>
<path style="fill:#988beb; stroke:none;" d="M45 40L46 41L45 40z"/>
<path style="fill:#8e80e8; stroke:none;" d="M85 40L85 61L86 61L85 40z"/>
<path style="fill:#8575e6; stroke:none;" d="M111 40L111 62L112 62L111 40z"/>
<path style="fill:#dee4e6; stroke:none;" d="M170 40L170 61L171 61L170 40z"/>
<path style="fill:#5f46eb; stroke:none;" d="M172 40L172 61L173 61L172 40z"/>
<path style="fill:#8b7cee; stroke:none;" d="M44 41L45 42L44 41z"/>
<path style="fill:#8374ef; stroke:none;" d="M43 42L44 43L43 42M42 43L43 44L42 43z"/>
<path style="fill:#8879ef; stroke:none;" d="M41 44L42 45L41 44z"/>
<path style="fill:#8171e6; stroke:none;" d="M124 44L124 50L125 50L124 44z"/>
<path style="fill:#9686ec; stroke:none;" d="M40 45L41 46L40 45z"/>
<path style="fill:#aea7ee; stroke:none;" d="M126 45L126 50L127 50L126 45z"/>
<path style="fill:#1819c8; stroke:none;" d="M0 46L0 47L27 47L0 46z"/>
<path style="fill:#9489f0; stroke:none;" d="M114 46L114 47L122 47L114 46z"/>
<path style="fill:#7f0df2; stroke:none;" d="M229 46L229 47L256 47L229 46z"/>
<path style="fill:#00399b; stroke:none;" d="M0 47L0 49L27 49L27 47L0 47z"/>
<path style="fill:#816fef; stroke:none;" d="M220 47L221 48L220 47z"/>
<path style="fill:#cf1dff; stroke:none;" d="M229 47L229 49L256 49L256 47L229 47z"/>
<path style="fill:#8b7ee4; stroke:none;" d="M114 48L114 49L122 49L114 48z"/>
<path style="fill:#1019c3; stroke:none;" d="M0 49L0 50L27 50L0 49z"/>
<path style="fill:#aaa5ee; stroke:none;" d="M113 49L113 58L114 58L113 49z"/>
<path style="fill:#750df3; stroke:none;" d="M229 49L229 50L256 50L229 49z"/>
<path style="fill:#8572ee; stroke:none;" d="M32 50L33 51L32 50z"/>
<path style="fill:#5d45e8; stroke:none;" d="M129.667 50.3333L130.333 50.6667L129.667 50.3333z"/>
<path style="fill:#9b8bec; stroke:none;" d="M219 50L220 51L219 50z"/>
<path style="fill:#7661ef; stroke:none;" d="M34 52L35 53L34 52z"/>
<path style="fill:#0032a3; stroke:none;" d="M0 53L0 55L23 55L23 53L0 53z"/>
<path style="fill:#8d7fee; stroke:none;" d="M133.333 53.6667L133.667 54.3333L133.333 53.6667z"/>
<path style="fill:#0030a2; stroke:none;" d="M233 53L233 55L256 55L256 53L233 53z"/>
<path style="fill:#9d90ed; stroke:none;" d="M223 55L224 56L223 55z"/>
<path style="fill:#400bfa; stroke:none;" d="M234 55L234 57L256 57L256 55L234 55z"/>
<path style="fill:#9a8ced; stroke:none;" d="M227 56L228 57L227 56z"/>
<path style="fill:#bebbec; stroke:none;" d="M114 58L114 59L127 59L114 58z"/>
<path style="fill:#8976ed; stroke:none;" d="M28 60L29 61L28 60z"/>
<path style="fill:#8c7de4; stroke:none;" d="M114 60L114 61L127 61L114 60z"/>
<path style="fill:#9989ea; stroke:none;" d="M86 62L87 63L86 62z"/>
<path style="fill:#856ded; stroke:none;" d="M110 62L111 63L110 62z"/>
<path style="fill:#8d7aee; stroke:none;" d="M142 62L143 63L142 62z"/>
<path style="fill:#9d90ee; stroke:none;" d="M231 62L232 63L231 62z"/>
<path style="fill:#8f7fee; stroke:none;" d="M26 63L27 64L26 63z"/>
<path style="fill:#7868ef; stroke:none;" d="M84 63L85 64L84 63z"/>
<path style="fill:#7563e7; stroke:none;" d="M87 63L87 64L110 64L87 63z"/>
<path style="fill:#9587ed; stroke:none;" d="M112 63L113 64L112 63z"/>
<path style="fill:#7a6ae6; stroke:none;" d="M146 63L146 64L168 64L146 63z"/>
<path style="fill:#8175ef; stroke:none;" d="M85 64L86 65L85 64z"/>
<path style="fill:#9690ed; stroke:none;" d="M111 64L112 65L111 64z"/>
<path style="fill:#d1d3e9; stroke:none;" d="M87 65L87 66L109 66L87 65z"/>
<path style="fill:#9e90ef; stroke:none;" d="M145.667 65.3333L146.333 65.6667L145.667 65.3333z"/>
<path style="fill:#c7c8e9; stroke:none;" d="M150 65L150 66L159 66L150 65M162 65L162 66L169 66L162 65z"/>
<path style="fill:#7b0ef6; stroke:none;" d="M0 66L0 67L15 67L0 66z"/>
<path style="fill:#8773ee; stroke:none;" d="M21 66L22 67L21 66z"/>
<path style="fill:#9b8ff0; stroke:none;" d="M147 66L147 80L148 80L147 66z"/>
<path style="fill:#8a7de7; stroke:none;" d="M149 66L149 80L150 80L149 66z"/>
<path style="fill:#b3acee; stroke:none;" d="M159 66L159 74L160 74L159 66z"/>
<path style="fill:#8a7ce4; stroke:none;" d="M161 66L161 74L162 74L161 66z"/>
<path style="fill:#ce1cff; stroke:none;" d="M0 67L0 68L15 68L0 67z"/>
<path style="fill:#9b91ee; stroke:none;" d="M231 67L232 68L231 67z"/>
<path style="fill:#978bed; stroke:none;" d="M234 67L235 68L234 67z"/>
<path style="fill:#770ef5; stroke:none;" d="M242 67L242 68L256 68L242 67z"/>
<path style="fill:#8b7aee; stroke:none;" d="M23 68L24 69L23 68z"/>
<path style="fill:#ce1cff; stroke:none;" d="M242 68L242 69L256 69L242 68z"/>
<path style="fill:#0f00c9; stroke:none;" d="M0 69L0 72L13 73L14 69L0 69z"/>
<path style="fill:#012cac; stroke:none;" d="M0 72L0 73L12 73L0 72z"/>
<path style="fill:#ac17fa; stroke:none;" d="M244 72L244 73L256 73L244 72z"/>
<path style="fill:#8a7cea; stroke:none;" d="M160 74L161 75L160 74z"/>
<path style="fill:#6d59e8; stroke:none;" d="M158 76L158 77L163 77L158 76z"/>
<path style="fill:#ffffe8; stroke:none;" d="M157 77L157 78C166.675 78.7319 165 87.5106 165 95L155 95L155 86L153 86L153 95C141.165 95.0418 141.999 102.123 142 112C142 115.351 141.12 120.635 143.742 123.258C147.349 126.865 163.2 126.006 167.891 124.682C173.58 123.076 172 114.487 172 110C172 101.361 168.296 99.1132 166.318 91.8958C163.986 83.3878 168.836 77.0418 157 77z"/>
<path style="fill:#d0d3e8; stroke:none;" d="M157 78L157 79L163 79L157 78z"/>
<path style="fill:#d3d7e8; stroke:none;" d="M166 79L166 95L167 95L166 79z"/>
<path style="fill:#032cac; stroke:none;" d="M0 80L0 81L9 81L0 80z"/>
<path style="fill:#6a54e9; stroke:none;" d="M164 80L164 95L165 95L164 80z"/>
<path style="fill:#1a172f; stroke:none;" d="M247 80L247 81L256 81L247 80z"/>
<path style="fill:#928aed; stroke:none;" d="M148 81L149 82L148 81z"/>
<path style="fill:#2154fe; stroke:none;" d="M0 84L0 85L7 85L0 84z"/>
<path style="fill:#1a54ff; stroke:none;" d="M249 84L249 85L256 85L249 84z"/>
<path style="fill:#6952ed; stroke:none;" d="M153.667 85.3333L154.333 85.6667L153.667 85.3333z"/>
<path style="fill:#5237ee; stroke:none;" d="M152 86L152 95L153 95L152 86z"/>
<path style="fill:#6044ed; stroke:none;" d="M240.333 86.6667L240.667 87.3333L240.333 86.6667z"/>
<path style="fill:#bfbfeb; stroke:none;" d="M11.3333 88.6667L11.6667 89.3333L11.3333 88.6667z"/>
<path style="fill:#5d43ec; stroke:none;" d="M241.333 89.6667L241.667 90.3333L241.333 89.6667z"/>
<path style="fill:#b3afeb; stroke:none;" d="M10.3333 91.6667L10.6667 92.3333L10.3333 91.6667z"/>
<path style="fill:#052cab; stroke:none;" d="M0 92L0 93L5 93L0 92z"/>
<path style="fill:#6c56ed; stroke:none;" d="M242.333 92.6667L242.667 93.3333L242.333 92.6667z"/>
<path style="fill:#1a54fc; stroke:none;" d="M251 92L251 93L256 93L251 92z"/>
<path style="fill:#bebbec; stroke:none;" d="M245.333 93.6667L245.667 94.3333L245.333 93.6667z"/>
<path style="fill:#9488eb; stroke:none;" d="M9.33333 94.6667L9.66667 95.3333L9.33333 94.6667z"/>
<path style="fill:#8a7bec; stroke:none;" d="M243.333 95.6667L243.667 96.3333L243.333 95.6667z"/>
<path style="fill:#9286ea; stroke:none;" d="M246.333 96.6667L246.667 97.3333L246.333 96.6667z"/>
<path style="fill:#8574e9; stroke:none;" d="M11.3333 97.6667L11.6667 98.3333L11.3333 97.6667z"/>
<path style="fill:#6048ec; stroke:none;" d="M146 97L146 98L168 98L146 97z"/>
<path style="fill:#9689ec; stroke:none;" d="M8.33333 98.6667L8.66667 99.3333L8.33333 98.6667z"/>
<path style="fill:#2600e3; stroke:none;" d="M145.603 99.0278C143.082 101.025 144 106.197 144 109C144 112.389 143.047 117.713 145.028 120.682C147.507 124.398 165.011 124.654 168.397 121.972C171.073 119.853 170 113.98 170 111C170 107.878 171.046 102.221 168.972 99.6034C166.507 96.4904 148.633 96.628 145.603 99.0278z"/>
<path style="fill:#897aeb; stroke:none;" d="M244 99L244 102L245 102L244 99z"/>
<path style="fill:#dde3e6; stroke:none;" d="M170 100L170 120L171 120L170 100z"/>
<path style="fill:#5d42ec; stroke:none;" d="M172 100L172 121L173 121L172 100z"/>
<path style="fill:#897be8; stroke:none;" d="M247 100L247 103L248 103L247 100z"/>
<path style="fill:#b518ff; stroke:none;" d="M253 100L253 101L256 101L253 100z"/>
<path style="fill:#8c7eea; stroke:none;" d="M10 101L10 104L11 104L10 101z"/>
<path style="fill:#8879e7; stroke:none;" d="M7 102L7 105L8 105L7 102z"/>
<path style="fill:#8879e6; stroke:none;" d="M245.333 104.667L245.667 105.333L245.333 104.667z"/>
<path style="fill:#8c7de5; stroke:none;" d="M248 105L248 108L249 108L248 105z"/>
<path style="fill:#8c7eec; stroke:none;" d="M9 106L9 109L10 109L9 106z"/>
<path style="fill:#8a7ce6; stroke:none;" d="M6 108L6 111L7 111L6 108z"/>
<path style="fill:#8a7ce8; stroke:none;" d="M246 110L246 113L247 113L246 110z"/>
<path style="fill:#8a7ce4; stroke:none;" d="M249 112L249 116L250 116L249 112z"/>
<path style="fill:#8e7fed; stroke:none;" d="M8 113L8 117L9 117L8 113z"/>
<path style="fill:#8d7ee5; stroke:none;" d="M5 115L5 121L6 121L5 115z"/>
<path style="fill:#725de8; stroke:none;" d="M247 118L247 138L248 138L247 118z"/>
<path style="fill:#c0bdeb; stroke:none;" d="M5 121L5 132L6 132L5 121z"/>
<path style="fill:#8370ed; stroke:none;" d="M145 122L146 123L145 122z"/>
<path style="fill:#8f7ced; stroke:none;" d="M171 122L172 123L171 122z"/>
<path style="fill:#a49af0; stroke:none;" d="M147 123L147 124L167 124L147 123z"/>
<path style="fill:#8170e5; stroke:none;" d="M250 123L250 132L251 132L250 123z"/>
<path style="fill:#806fed; stroke:none;" d="M144 124L145 125L144 124z"/>
<path style="fill:#8d80e4; stroke:none;" d="M146 125L146 126L168 126L146 125z"/>
<path style="fill:#8c7de7; stroke:none;" d="M5 132L5 138L6 138L5 132z"/>
<path style="fill:#897ce4; stroke:none;" d="M8 137L8 142L9 142L8 137z"/>
<path style="fill:#9081f0; stroke:none;" d="M249 140L249 144L250 144L249 140z"/>
<path style="fill:#9385ee; stroke:none;" d="M6 143L6 147L7 147L6 143z"/>
<path style="fill:#8b7ee9; stroke:none;" d="M246 143L246 146L247 146L246 143z"/>
<path style="fill:#9080ed; stroke:none;" d="M9 146L9 149L10 149L9 146z"/>
<path style="fill:#9080f0; stroke:none;" d="M70 147L70 148L81 148L70 147M94 147L94 148L100 150C101.356 146.402 96.5347 147.01 94 147M128 147L128 148L134 148L128 147z"/>
<path style="fill:#f4ffe4; stroke:none;" d="M70 148L61 194C66.0621 194 72.6517 195.126 76.7863 191.566C83.9304 185.416 84.5729 170.689 86.196 162C86.8697 158.393 87.894 153.533 85.2577 150.434C81.9982 146.602 74.4735 148 70 148z"/>
<path style="fill:#ffffe4; stroke:none;" d="M94 148L93 154C97.724 153.845 99.619 152.89 100 148L94 148z"/>
<path style="fill:#ffffe3; stroke:none;" d="M127 148L118 194C122.411 193.958 130.02 196.212 133.272 192.566C138.157 187.089 145.377 151.701 131 162L134 148L127 148z"/>
<path style="fill:#8879e5; stroke:none;" d="M248.333 148.667L248.667 149.333L248.333 148.667z"/>
<path style="fill:#7664e7; stroke:none;" d="M133.333 149.667L133.667 150.333L133.333 149.667z"/>
<path style="fill:#8b7deb; stroke:none;" d="M245 149L245 152L246 152L245 149z"/>
<path style="fill:#8879e6; stroke:none;" d="M7 150L7 153L8 153L7 150z"/>
<path style="fill:#8878ec; stroke:none;" d="M69 150L69 153L70 153L69 150z"/>
<path style="fill:#8e80eb; stroke:none;" d="M93.3333 150.667L93.6667 151.333L93.3333 150.667z"/>
<path style="fill:#8b7cea; stroke:none;" d="M10 151L10 154L11 154L10 151z"/>
<path style="fill:#8e7fec; stroke:none;" d="M126.333 151.667L126.667 152.333L126.333 151.667z"/>
<path style="fill:#8879ec; stroke:none;" d="M132 153L132 156L133 156L132 153z"/>
<path style="fill:#8273e5; stroke:none;" d="M247.333 153.667L247.667 154.333L247.333 153.667z"/>
<path style="fill:#6e6de4; stroke:none;" d="M76 154L76 155L79 155L76 154z"/>
<path style="fill:#9589ed; stroke:none;" d="M244.333 154.667L244.667 155.333L244.333 154.667z"/>
<path style="fill:#7764e8; stroke:none;" d="M8.33333 155.667L8.66667 156.333L8.33333 155.667z"/>
<path style="fill:#8f81ee; stroke:none;" d="M68.3333 155.667L68.6667 156.333L68.3333 155.667z"/>
<path style="fill:#7563e8; stroke:none;" d="M75.3333 155.667L75.6667 156.333L75.3333 155.667z"/>
<path style="fill:#2600e3; stroke:none;" d="M76 155L69 188C78.656 183.939 78.999 164.189 79 155L76 155z"/>
<path style="fill:#5236ee; stroke:none;" d="M79 155L79 162L80 162L79 155z"/>
<path style="fill:#b518ff; stroke:none;" d="M253 155L253 156L256 156L253 155z"/>
<path style="fill:#a59cee; stroke:none;" d="M11.3333 156.667L11.6667 157.333L11.3333 156.667z"/>
<path style="fill:#9a8ff0; stroke:none;" d="M125.333 156.667L125.667 157.333L125.333 156.667z"/>
<path style="fill:#8474e9; stroke:none;" d="M246.333 157.667L246.667 158.333L246.333 157.667z"/>
<path style="fill:#4d44e8; stroke:none;" d="M131 158L131 162L132 162L131 158z"/>
<path style="fill:#9e94ee; stroke:none;" d="M243.333 158.667L243.667 159.333L243.333 158.667z"/>
<path style="fill:#6d59ea; stroke:none;" d="M9.33333 159.667L9.66667 160.333L9.33333 159.667z"/>
<path style="fill:#8d80eb; stroke:none;" d="M74 159L74 162L75 162L74 159z"/>
<path style="fill:#8b7fe3; stroke:none;" d="M92 159L92 160L98 160L92 159z"/>
<path style="fill:#ada0ed; stroke:none;" d="M108.667 159.333L109.333 159.667L108.667 159.333z"/>
<path style="fill:#f4ffe4; stroke:none;" d="M102 169L112 165C110.518 174.307 100.126 175.3 97.5139 184C94.8614 192.834 99.4819 196.13 107 192L113 194C113.397 184.767 119.789 172.995 117.667 164.019C115.204 153.597 103.033 162.31 102 169z"/>
<path style="fill:#a494ed; stroke:none;" d="M151.667 159.333L152.333 159.667L151.667 159.333z"/>
<path style="fill:#f4ffe4; stroke:none;" d="M145 169L151 169L155 165C154.717 167.532 154.383 169.654 152.566 171.612C148.956 175.503 144.014 176.913 141.457 182.001C137.133 190.604 141.302 196.779 150 192L156 194C156.404 184.731 162.817 173.111 160.667 164.019C158.204 153.597 146.033 162.31 145 169M171 190L167 185L161 185C161.238 194.828 172.52 199.446 176.991 188.96C180.213 181.403 174.95 177.495 172.797 171.001C171.702 167.697 173.664 165.903 176 164L177 165L176 168L182 168C181.876 157.568 170.534 156.131 166.742 166.001C163.247 175.099 173.149 180.849 171 190M199 182L193 182L191 190L188 190L189 178L200 178C200.902 173.629 202.858 168.53 201.681 164.044C199.894 157.229 191.873 158.791 188.314 163.059C184.25 167.932 183.679 176.921 182.615 183C179.655 199.903 197.099 196.033 199 182z"/>
<path style="fill:#bebeeb; stroke:none;" d="M12.3333 160.667L12.6667 161.333L12.3333 160.667z"/>
<path style="fill:#9b91f0; stroke:none;" d="M67.3333 160.667L67.6667 161.333L67.3333 160.667z"/>
<path style="fill:#8b7cec; stroke:none;" d="M86 160L86 163L87 163L86 160z"/>
<path style="fill:#9b8eef; stroke:none;" d="M91.3333 160.667L91.6667 161.333L91.3333 160.667z"/>
<path style="fill:#f4ffe4; stroke:none;" d="M85 194L91 194L98 160C87.6005 160.346 85.7205 185.179 85 194z"/>
<path style="fill:#8475e9; stroke:none;" d="M124 160L124 163L125 163L124 160z"/>
<path style="fill:#948ded; stroke:none;" d="M200 160L201 161L200 160z"/>
<path style="fill:#928aec; stroke:none;" d="M105 161L106 162L105 161z"/>
<path style="fill:#8f87ed; stroke:none;" d="M169 161L170 162L169 161z"/>
<path style="fill:#8a80ed; stroke:none;" d="M189 161L190 162L189 161z"/>
<path style="fill:#6d57ec; stroke:none;" d="M245.333 161.667L245.667 162.333L245.333 161.667z"/>
<path style="fill:#8474ea; stroke:none;" d="M10.3333 162.667L10.6667 163.333L10.3333 162.667z"/>
<path style="fill:#8172e6; stroke:none;" d="M97.3333 162.667L97.6667 163.333L97.3333 162.667z"/>
<path style="fill:#9b8dec; stroke:none;" d="M104 162L105 163L104 162z"/>
<path style="fill:#8e80e8; stroke:none;" d="M140 162L140 166L141 166L140 162z"/>
<path style="fill:#887bee; stroke:none;" d="M188 162L189 163L188 162z"/>
<path style="fill:#042cab; stroke:none;" d="M0 163L0 164L5 164L0 163z"/>
<path style="fill:#b1adeb; stroke:none;" d="M13.3333 163.667L13.6667 164.333L13.3333 163.667z"/>
<path style="fill:#8676e8; stroke:none;" d="M118 163L118 167L119 167L118 163z"/>
<path style="fill:#9689ea; stroke:none;" d="M161 163L161 167L162 167L161 163z"/>
<path style="fill:#8c7eec; stroke:none;" d="M182 163L182 167L183 167L182 163z"/>
<path style="fill:#8f81e8; stroke:none;" d="M202 163L202 169L203 169L202 163z"/>
<path style="fill:#1a54fc; stroke:none;" d="M251 163L251 164L256 164L251 163z"/>
<path style="fill:#8474e8; stroke:none;" d="M66 164L66 167L67 167L66 164z"/>
<path style="fill:#8070e9; stroke:none;" d="M73.3333 164.667L73.6667 165.333L73.3333 164.667z"/>
<path style="fill:#8879ea; stroke:none;" d="M90 164L90 167L91 167L90 164z"/>
<path style="fill:#9f91e8; stroke:none;" d="M174.667 164.333L175.333 164.667L174.667 164.333z"/>
<path style="fill:#8f82ef; stroke:none;" d="M78.3333 165.667L78.6667 166.333L78.3333 165.667z"/>
<path style="fill:#9587f0; stroke:none;" d="M85 165L85 168L86 168L85 165z"/>
<path style="fill:#8b7deb; stroke:none;" d="M123 165L123 168L124 168L123 165z"/>
<path style="fill:#1f00e1; stroke:none;" d="M131 165L126 189C131.957 185.356 132.864 171.572 133 165L131 165z"/>
<path style="fill:#9c91f1; stroke:none;" d="M176.333 165.667L176.667 166.333L176.333 165.667z"/>
<path style="fill:#1a00e5; stroke:none;" d="M191 173C195.657 172.191 195.895 169.31 196 165C192.029 166.305 191.543 169.081 191 173z"/>
<path style="fill:#978cee; stroke:none;" d="M96 166L96 169L97 169L96 166z"/>
<path style="fill:#8d7fee; stroke:none;" d="M133.333 166.667L133.667 167.333L133.333 166.667z"/>
<path style="fill:#8879ed; stroke:none;" d="M196 166L196 169L197 169L196 166z"/>
<path style="fill:#cdcee8; stroke:none;" d="M101 167C101.729 170.403 103.806 169.987 107 170L107 169L101 167z"/>
<path style="fill:#9588f0; stroke:none;" d="M111.333 167.667L111.667 168.333L111.333 167.667z"/>
<path style="fill:#8575ec; stroke:none;" d="M129 167L129 170L130 170L129 167z"/>
<path style="fill:#cdcee8; stroke:none;" d="M144 167C144.796 170.716 147.637 170 151 170L151 169L144 167z"/>
<path style="fill:#8879e9; stroke:none;" d="M154 167L154 170L155 170L154 167z"/>
<path style="fill:#9689ef; stroke:none;" d="M72 168L72 171L73 171L72 168z"/>
<path style="fill:#715cec; stroke:none;" d="M107.333 168.667L107.667 169.333L107.333 168.667z"/>
<path style="fill:#8b7cec; stroke:none;" d="M139 168L139 171L140 171L139 168z"/>
<path style="fill:#8171e5; stroke:none;" d="M165 168L165 173L166 173L165 168z"/>
<path style="fill:#bdbbea; stroke:none;" d="M171.333 168.667L171.667 169.333L171.333 168.667z"/>
<path style="fill:#8e7fe8; stroke:none;" d="M176 168L176 169L182 169L176 168z"/>
<path style="fill:#b3aeee; stroke:none;" d="M185.333 168.667L185.667 169.333L185.333 168.667z"/>
<path style="fill:#654dea; stroke:none;" d="M191.333 168.667L191.667 169.333L191.333 168.667z"/>
<path style="fill:#8a7beb; stroke:none;" d="M65 169L65 172L66 172L65 169z"/>
<path style="fill:#9184ec; stroke:none;" d="M89 169L89 172L90 172L89 169z"/>
<path style="fill:#8777eb; stroke:none;" d="M117.333 169.667L117.667 170.333L117.333 169.667z"/>
<path style="fill:#9082ee; stroke:none;" d="M160 169L160 172L161 172L160 169z"/>
<path style="fill:#9f93f0; stroke:none;" d="M77.3333 170.667L77.6667 171.333L77.3333 170.667z"/>
<path style="fill:#9285ed; stroke:none;" d="M122.333 170.667L122.667 171.333L122.333 170.667z"/>
<path style="fill:#2154fe; stroke:none;" d="M0 171L0 172L7 172L0 171z"/>
<path style="fill:#745fe8; stroke:none;" d="M84.3333 171.667L84.6667 172.333L84.3333 171.667z"/>
<path style="fill:#8d7eeb; stroke:none;" d="M95 171L95 174L96 174L95 171z"/>
<path style="fill:#9d93ee; stroke:none;" d="M132.333 171.667L132.667 172.333L132.333 171.667z"/>
<path style="fill:#9d92f0; stroke:none;" d="M195.333 171.667L195.667 172.333L195.333 171.667z"/>
<path style="fill:#8777e8; stroke:none;" d="M201.333 171.667L201.667 172.333L201.333 171.667z"/>
<path style="fill:#1a54ff; stroke:none;" d="M249 171L249 172L256 172L249 171z"/>
<path style="fill:#8271ea; stroke:none;" d="M128.333 172.667L128.667 173.333L128.333 172.667z"/>
<path style="fill:#9183ee; stroke:none;" d="M184.333 172.667L184.667 173.333L184.333 172.667z"/>
<path style="fill:#c1beeb; stroke:none;" d="M190 172L195 174L195 173L190 172z"/>
<path style="fill:#8979ed; stroke:none;" d="M71 173L71 176L72 176L71 173z"/>
<path style="fill:#8171ea; stroke:none;" d="M138.333 173.667L138.667 174.333L138.333 173.667z"/>
<path style="fill:#9588f0; stroke:none;" d="M64.3333 174.667L64.6667 175.333L64.3333 174.667z"/>
<path style="fill:#8878ec; stroke:none;" d="M76 174L76 177L77 177L76 174z"/>
<path style="fill:#9589f0; stroke:none;" d="M88.3333 174.667L88.6667 175.333L88.3333 174.667z"/>
<path style="fill:#7e6de9; stroke:none;" d="M116.333 174.667L116.667 175.333L116.333 174.667z"/>
<path style="fill:#8b7ce9; stroke:none;" d="M159 174L159 177L160 177L159 174z"/>
<path style="fill:#8471ef; stroke:none;" d="M174 174L175 175L174 174z"/>
<path style="fill:#032cac; stroke:none;" d="M0 175L0 176L9 176L0 175z"/>
<path style="fill:#8879eb; stroke:none;" d="M83.3333 175.667L83.6667 176.333L83.3333 175.667z"/>
<path style="fill:#9f96ef; stroke:none;" d="M121.333 175.667L121.667 176.333L121.333 175.667z"/>
<path style="fill:#8575eb; stroke:none;" d="M131 175L131 178L132 178L131 175z"/>
<path style="fill:#9689ef; stroke:none;" d="M200 175L200 178L201 178L200 175z"/>
<path style="fill:#1a172f; stroke:none;" d="M247 175L247 176L256 176L247 175z"/>
<path style="fill:#8576ea; stroke:none;" d="M94 176L94 179L95 179L94 176z"/>
<path style="fill:#9081ed; stroke:none;" d="M167 176L168 177L167 176z"/>
<path style="fill:#806fe9; stroke:none;" d="M183 176L183 179L184 179L183 176z"/>
<path style="fill:#7967e9; stroke:none;" d="M127.333 177.667L127.667 178.333L127.333 177.667z"/>
<path style="fill:#8472ea; stroke:none;" d="M63 178L63 181L64 181L63 178z"/>
<path style="fill:#8575e9; stroke:none;" d="M70.3333 178.667L70.6667 179.333L70.3333 178.667z"/>
<path style="fill:#8071e8; stroke:none;" d="M87 178L87 181L88 181L87 178z"/>
<path style="fill:#2000e1; stroke:none;" d="M108 178C104.825 181.573 102.839 184.178 104 189L106 189L108 178z"/>
<path style="fill:#9386ed; stroke:none;" d="M115 178L115 181L116 181L115 178z"/>
<path style="fill:#7b6ae7; stroke:none;" d="M137.333 178.667L137.667 179.333L137.333 178.667z"/>
<path style="fill:#0400e1; stroke:none;" d="M151 178L147 189C150.95 186.824 152.323 182.303 151 178z"/>
<path style="fill:#624beb; stroke:none;" d="M189 178L189 179L200 179L189 178z"/>
<path style="fill:#9d93ee; stroke:none;" d="M75.3333 179.667L75.6667 180.333L75.3333 179.667z"/>
<path style="fill:#8371ed; stroke:none;" d="M82.3333 179.667L82.6667 180.333L82.3333 179.667z"/>
<path style="fill:#8777ec; stroke:none;" d="M120 179L120 182L121 182L120 179z"/>
<path style="fill:#8a7be9; stroke:none;" d="M158.333 179.667L158.667 180.333L158.333 179.667z"/>
<path style="fill:#8e80ed; stroke:none;" d="M130 180L130 183L131 183L130 180z"/>
<path style="fill:#7d6ce6; stroke:none;" d="M93.3333 181.667L93.6667 182.333L93.3333 181.667z"/>
<path style="fill:#8c7bec; stroke:none;" d="M98 181L99 182L98 181z"/>
<path style="fill:#9182ea; stroke:none;" d="M108 181L108 184L109 184L108 181z"/>
<path style="fill:#9083ed; stroke:none;" d="M126 181L126 184L127 184L126 181z"/>
<path style="fill:#8879e8; stroke:none;" d="M151 181L151 184L152 184L151 181z"/>
<path style="fill:#9b91f0; stroke:none;" d="M178 181L178 186L179 186L178 181z"/>
<path style="fill:#8c7ded; stroke:none;" d="M182 181L182 184L183 184L182 181z"/>
<path style="fill:#9183ec; stroke:none;" d="M188 181L188 184L189 184L188 181z"/>
<path style="fill:#988df0; stroke:none;" d="M69 182L69 185L70 185L69 182z"/>
<path style="fill:#9285ec; stroke:none;" d="M136 182L136 185L137 185L136 182z"/>
<path style="fill:#012cac; stroke:none;" d="M0 183L0 184L12 184L0 183z"/>
<path style="fill:#0f00c9; stroke:none;" d="M0 184L0 187L14 187L13 183L0 184z"/>
<path style="fill:#8979eb; stroke:none;" d="M62 183L62 186L63 186L62 183z"/>
<path style="fill:#8a79ed; stroke:none;" d="M86 183L86 186L87 186L86 183z"/>
<path style="fill:#8f81ec; stroke:none;" d="M114 183L114 186L115 186L114 183z"/>
<path style="fill:#7f6eeb; stroke:none;" d="M172 183L172 186L173 186L172 183z"/>
<path style="fill:#ac17fa; stroke:none;" d="M244 183L244 184L256 184L244 183z"/>
<path style="fill:#9082ec; stroke:none;" d="M119 184L119 187L120 187L119 184z"/>
<path style="fill:#4e31ed; stroke:none;" d="M146 184L146 188L147 188L146 184z"/>
<path style="fill:#8070e7; stroke:none;" d="M157.333 184.667L157.667 185.333L157.333 184.667z"/>
<path style="fill:#8d80e9; stroke:none;" d="M161 184L161 185L167 185L161 184z"/>
<path style="fill:#9386ed; stroke:none;" d="M92 185L92 188L93 188L92 185z"/>
<path style="fill:#988cf0; stroke:none;" d="M129.333 185.667L129.667 186.333L129.333 185.667z"/>
<path style="fill:#988dee; stroke:none;" d="M192.333 185.667L192.667 186.333L192.333 185.667z"/>
<path style="fill:#8272e9; stroke:none;" d="M198.333 185.667L198.667 186.333L198.333 185.667z"/>
<path style="fill:#b8b3ee; stroke:none;" d="M96 186L96 193L97 193L96 186z"/>
<path style="fill:#7f6df0; stroke:none;" d="M125.333 186.667L125.667 187.333L125.333 186.667z"/>
<path style="fill:#9e92f1; stroke:none;" d="M139 186L139 193L140 193L139 186z"/>
<path style="fill:#8678e8; stroke:none;" d="M181 186L181 190L182 190L181 186z"/>
<path style="fill:#aba5ee; stroke:none;" d="M187.333 186.667L187.667 187.333L187.333 186.667z"/>
<path style="fill:#9790e9; stroke:none;" d="M70.6667 187.333L71.3333 187.667L70.6667 187.333z"/>
<path style="fill:#887aeb; stroke:none;" d="M135.333 187.667L135.667 188.333L135.333 187.667z"/>
<path style="fill:#ce1cff; stroke:none;" d="M242 187L242 188L256 188L242 187M0 188L0 189L15 189L0 188z"/>
<path style="fill:#8a79ee; stroke:none;" d="M24 188L25 189L24 188z"/>
<path style="fill:#8e82ea; stroke:none;" d="M61.3333 188.667L61.6667 189.333L61.3333 188.667z"/>
<path style="fill:#7e69ed; stroke:none;" d="M79 188L80 189L79 188z"/>
<path style="fill:#9487ee; stroke:none;" d="M85.3333 188.667L85.6667 189.333L85.3333 188.667z"/>
<path style="fill:#8878eb; stroke:none;" d="M113 188L113 191L114 191L113 188z"/>
<path style="fill:#8e80ed; stroke:none;" d="M156 188L156 191L157 191L156 188z"/>
<path style="fill:#770ef5; stroke:none;" d="M242 188L242 189L256 189L242 188z"/>
<path style="fill:#7b0ef6; stroke:none;" d="M0 189L0 190L15 190L0 189z"/>
<path style="fill:#978aee; stroke:none;" d="M118.333 189.667L118.667 190.333L118.333 189.667z"/>
<path style="fill:#9c8eec; stroke:none;" d="M170 189L171 190L170 189z"/>
<path style="fill:#7980ed; stroke:none;" d="M188 189L188 190L191 190L188 189z"/>
<path style="fill:#9384ee; stroke:none;" d="M230 189L231 190L230 189z"/>
<path style="fill:#8672ee; stroke:none;" d="M22 190L23 191L22 190z"/>
<path style="fill:#8a7bec; stroke:none;" d="M91 190L91 193L92 193L91 190z"/>
<path style="fill:#7c65ed; stroke:none;" d="M176 190L177 191L176 190z"/>
<path style="fill:#826dec; stroke:none;" d="M232 191L233 192L232 191z"/>
<path style="fill:#998cef; stroke:none;" d="M105.667 192.333L106.333 192.667L105.667 192.333z"/>
<path style="fill:#8270ee; stroke:none;" d="M148 192L149 195L150 195L150 192L148 192z"/>
<path style="fill:#7b68f2; stroke:none;" d="M60.3333 193.667L60.6667 194.333L60.3333 193.667z"/>
<path style="fill:#7a67f3; stroke:none;" d="M84.3333 193.667L84.6667 194.333L84.3333 193.667z"/>
<path style="fill:#715be9; stroke:none;" d="M117.333 193.667L117.667 194.333L117.333 193.667z"/>
<path style="fill:#8177ea; stroke:none;" d="M147 193L148 194L147 193z"/>
<path style="fill:#928bec; stroke:none;" d="M173 193L174 194L173 193z"/>
<path style="fill:#bdbaec; stroke:none;" d="M61 194L61 195L71 195L61 194z"/>
<path style="fill:#bebaec; stroke:none;" d="M85 194L85 195L91 195L85 194M106 194L106 195L113 195L106 194M118 194L118 195L124 195L118 194z"/>
<path style="fill:#8979ed; stroke:none;" d="M131 194L132 195L131 194z"/>
<path style="fill:#bebaec; stroke:none;" d="M150 194L150 195L156 195L150 194z"/>
<path style="fill:#9889ee; stroke:none;" d="M230 194L231 195L230 194z"/>
<path style="fill:#593bef; stroke:none;" d="M142.667 195.333L143.333 195.667L142.667 195.333z"/>
<path style="fill:#9384ee; stroke:none;" d="M228 197L229 198L228 197z"/>
<path style="fill:#9c8ded; stroke:none;" d="M224 198L225 199L224 198z"/>
<path style="fill:#0000e5; stroke:none;" d="M228 198L206 223C212.809 219.825 228.685 206.248 228 198z"/>
<path style="fill:#9586ed; stroke:none;" d="M28 199L29 200L28 199z"/>
<path style="fill:#481ffe; stroke:none;" d="M234 199L234 201L256 201L256 199L234 199z"/>
<path style="fill:#0032a6; stroke:none;" d="M0 201L0 203L23 203L23 201L0 201z"/>
<path style="fill:#0030a2; stroke:none;" d="M233 201L233 203L256 203L256 201L233 201z"/>
<path style="fill:#9383ed; stroke:none;" d="M31 203L32 204L31 203z"/>
<path style="fill:#806def; stroke:none;" d="M222 205L223 206L222 205z"/>
<path style="fill:#1019c3; stroke:none;" d="M0 206L0 207L27 207L0 206z"/>
<path style="fill:#9484ed; stroke:none;" d="M37 206L38 207L37 206z"/>
<path style="fill:#750df3; stroke:none;" d="M229 206L229 207L256 207L229 206z"/>
<path style="fill:#003999; stroke:none;" d="M0 207L0 209L27 209L27 207L0 207z"/>
<path style="fill:#cf1dff; stroke:none;" d="M229 207L229 209L256 209L256 207L229 207z"/>
<path style="fill:#8272f0; stroke:none;" d="M36 209L37 210L36 209z"/>
<path style="fill:#7f0df2; stroke:none;" d="M229 209L229 210L256 210L229 209z"/>
<path style="fill:#9d8dec; stroke:none;" d="M37 210L38 211L37 210z"/>
<path style="fill:#0031a5; stroke:none;" d="M0 212L0 256L31 256L31 212L0 212z"/>
<path style="fill:#1619bc; stroke:none;" d="M31 212L31 256L32 256C32 243.52 35.8102 223.463 31 212z"/>
<path style="fill:#132ff0; stroke:none;" d="M224 212L224 256L225 256C225 243.52 228.81 223.463 224 212z"/>
<path style="fill:#195dff; stroke:none;" d="M225 212L225 256L256 256L256 212L225 212z"/>
<path style="fill:#7d70ef; stroke:none;" d="M48 217L49 218L48 217z"/>
<path style="fill:#8b7fed; stroke:none;" d="M45 218L46 219L45 218z"/>
<path style="fill:#8378ed; stroke:none;" d="M54 222L55 223L54 222z"/>
<path style="fill:#796df0; stroke:none;" d="M205 222L206 223L205 222z"/>
<path style="fill:#867bee; stroke:none;" d="M58 225L59 226L58 225z"/>
<path style="fill:#122ade; stroke:none;" d="M212 225L212 256L213 256L212 225z"/>
<path style="fill:#7b6eed; stroke:none;" d="M61 227L62 228L61 227z"/>
<path style="fill:#7f74ee; stroke:none;" d="M197 228L198 229L197 228z"/>
<path style="fill:#8074ed; stroke:none;" d="M59 229L60 230L59 229z"/>
<path style="fill:#897fed; stroke:none;" d="M64 229L65 230L64 229z"/>
<path style="fill:#5306ee; stroke:none;" d="M206 229L206 256L208 256L208 229L206 229z"/>
<path style="fill:#887dee; stroke:none;" d="M194 230L195 231L194 230z"/>
<path style="fill:#7969ed; stroke:none;" d="M62 231L63 232L62 231z"/>
<path style="fill:#958eed; stroke:none;" d="M69 232L70 233L69 232z"/>
<path style="fill:#9a92ee; stroke:none;" d="M189 233L190 234L189 233z"/>
<path style="fill:#1d10a9; stroke:none;" d="M199 234L199 256L201 256L201 234L199 234z"/>
<path style="fill:#9083ec; stroke:none;" d="M69 235L70 236L69 235z"/>
<path style="fill:#736aeb; stroke:none;" d="M86.6667 240.333L87.3333 240.667L86.6667 240.333z"/>
<path style="fill:#7167eb; stroke:none;" d="M89.6667 241.333L90.3333 241.667L89.6667 241.333z"/>
<path style="fill:#24068f; stroke:none;" d="M187 241L187 256L189 256L189 241L187 241z"/>
<path style="fill:#bcb9e9; stroke:none;" d="M84.6667 242.333L85.3333 242.667L84.6667 242.333z"/>
<path style="fill:#7f79ea; stroke:none;" d="M92.6667 242.333L93.3333 242.667L92.6667 242.333z"/>
<path style="fill:#9886eb; stroke:none;" d="M161.667 242.333L162.333 242.667L161.667 242.333z"/>
<path style="fill:#6451eb; stroke:none;" d="M96.6667 243.333L97.3333 243.667L96.6667 243.333z"/>
<path style="fill:#b5abec; stroke:none;" d="M158.667 243.333L159.333 243.667L158.667 243.333z"/>
<path style="fill:#6253ec; stroke:none;" d="M167.667 243.333L168.333 243.667L167.667 243.333z"/>
<path style="fill:#7060e8; stroke:none;" d="M100.667 244.333L101.333 244.667L100.667 244.333z"/>
<path style="fill:#a699ee; stroke:none;" d="M154.667 244.333L155.333 244.667L154.667 244.333z"/>
<path style="fill:#6557ed; stroke:none;" d="M164.667 244.333L165.333 244.667L164.667 244.333z"/>
<path style="fill:#6a0bec; stroke:none;" d="M183 244L183 256L184 256L183 244z"/>
<path style="fill:#ac9fec; stroke:none;" d="M93.6667 245.333L94.3333 245.667L93.6667 245.333z"/>
<path style="fill:#8d80ea; stroke:none;" d="M104 245L104 246L107 246L104 245z"/>
<path style="fill:#9584ef; stroke:none;" d="M149.667 245.333L150.333 245.667L149.667 245.333z"/>
<path style="fill:#5a41ea; stroke:none;" d="M161.667 245.333L162.333 245.667L161.667 245.333z"/>
<path style="fill:#b4aded; stroke:none;" d="M97.6667 246.333L98.3333 246.667L97.6667 246.333z"/>
<path style="fill:#8b80eb; stroke:none;" d="M110 246L110 247L114 247L110 246z"/>
<path style="fill:#9182f0; stroke:none;" d="M141 246L141 247L145 247L141 246z"/>
<path style="fill:#7265e9; stroke:none;" d="M157.667 246.333L158.333 246.667L157.667 246.333z"/>
<path style="fill:#9584ee; stroke:none;" d="M101.667 247.333L102.333 247.667L101.667 247.333z"/>
<path style="fill:#8d80e6; stroke:none;" d="M118 247L118 248L136 248L118 247z"/>
<path style="fill:#8c80ea; stroke:none;" d="M152 247L152 248L155 248L152 247z"/>
<path style="fill:#6b0bf4; stroke:none;" d="M175 247L175 256L176 256L175 247z"/>
<path style="fill:#8b80eb; stroke:none;" d="M106 248L106 249L109 249L106 248z"/>
<path style="fill:#8d80e6; stroke:none;" d="M147 248L147 249L150 249L147 248z"/>
<path style="fill:#8d80e1; stroke:none;" d="M112 249L112 250L117 250L112 249z"/>
<path style="fill:#8b80e2; stroke:none;" d="M138 249L138 250L143 250L138 249z"/>
<path style="fill:#5538ee; stroke:none;" d="M121 250L121 251L132 251L121 250z"/>
<path style="fill:#690bf0; stroke:none;" d="M163 251L163 256L164 256L163 251z"/>
</svg>
