/* XPM */
static char *diabase641695139813[] = {
/* columns rows colors chars-per-pixel */
"64 64 69 1 ",
"  c None",
". c #005FE1",
"X c #0060E1",
"o c #006DE4",
"O c #0073E5",
"+ c #037BE6",
"@ c #0B7DE7",
"# c #147DE7",
"$ c #1A7DE7",
"% c #0A80E7",
"& c #0D83E8",
"* c #1586E9",
"= c #1B85E8",
"- c #1688E9",
"; c #1B89E9",
": c #2282E7",
"> c #2383E8",
", c #2884E8",
"< c #218DEA",
"1 c #2C8EEA",
"2 c #338FEA",
"3 c #3D8DEA",
"4 c #2D90EB",
"5 c #3190EB",
"6 c #3B93EB",
"7 c #4592EA",
"8 c #4A97EB",
"9 c #459AEC",
"0 c #4C9DED",
"q c #519FED",
"w c #589EED",
"e c #53A1EE",
"r c #5DA4EE",
"t c #5EA8EF",
"y c #61A7EE",
"u c #61AAEF",
"i c #6AA8EF",
"p c #63ABF0",
"a c #6CAEF1",
"s c #70AFF0",
"d c #6DB2F1",
"f c #71B5F2",
"g c #7BB5F1",
"h c #75B8F2",
"j c #7EBCF3",
"k c #83BDF3",
"l c #8BBFF3",
"z c #86C0F3",
"x c #8CC4F4",
"c c #93C6F4",
"v c #9CC6F4",
"b c #9CC8F5",
"n c #A4CBF6",
"m c #ADCCF6",
"M c #B7D3F7",
"N c #BAD6F7",
"B c #B7D8F8",
"V c #BEDBF8",
"C c #C2DDF9",
"Z c #C9DEF9",
"A c #CCE0F9",
"S c #D4E5FA",
"D c #DAE7FA",
"F c #DCEAFB",
"G c #E3EDFC",
"H c #EDF5FD",
"J c #F1F7FE",
"K c #F3F8FE",
"L c #FFFFFF",
/* pixels */
"                                                                ",
"                            ;;;;;;;;                            ",
"                       ;;;;;;;;;;;;;;;;;                        ",
"                     ;;;;;;;;;;-;;;;;;;;;;;                     ",
"                  ;;;=;;;;;;;-;;;;;;;;;;;;;;;;                  ",
"                ;;;;;;;;;;;;;;;;;;;;;;;;;;;-;;;                 ",
"               ;;;-;;;;;;;;-;;;;;;;;;;;;;;;;;;;;;               ",
"             ;;;;;;;;;;;;;;;;;;;;;-;;;-;-;;;;;;;;;              ",
"            ;;;;;;;;;;;;;;-;;;;;;-;;=;;;;;-;;;;;;;;;            ",
"           ;;;;;;;;;;;-;;;;;;;;;;;;;;;;;;;;;;;;=;;;;;           ",
"          ;;;;;;;-;;;;;;;;;;;;;;;;;;;;;;;;;;;;;;;;;;;;          ",
"         ;;;;;;;;=;;;;;;;;;;;;;;;;;;;;;;;;;;;;;;;-;;;;;         ",
"        ;;;;;-;;;;;;;;;=;;;;;;;;;;;;;;;-;;;;;;;-;;-;;;;;        ",
"       ;;-;;;;;;;;;;;;;;;;;;;;;;;;;;;;;;;;;;;;;;;;;;;;;;        ",
"       ;;;;;;;-;;;-;;;;;;;;;;;;;;;;;;;;;;;;;;;;;;;;;;;;;;       ",
"      ;;;;;;;;;;;;;;;;;;;-;;;;;;;;-;;;;;;;=-;;;;;;;;;;;;;;      ",
"     ;;;;;;;;;;;;;;;;;;;;;;;;;;;;;;;;;;;;;;;;;;;;;;;;;;;;;;     ",
"     ;;;;;;;;;;;;;;;;<;;;;;;;;;;;;;;;;;;;;;;;;;;;;<;;;;;;;;     ",
"    ;;;;;;;;;;-++OOOOO+OO+OO@;;;;;OOOOOOOOOoOOOOOOOoOO&;;;;;    ",
"    ;;;;;;;;+o@5euttttttttur1O;;;@ezkkkjjkjkjkkjjjkkfe=o*;;;    ",
"   ;;;;-;;*o1lSLLLLLLLLLLLLLLsO;OqLLLLLLLLLLLLLLLLLLLLHk+@<;    ",
"   ;;;;;<OOkLLLLLLLLLLLLLLLLLL5+OjLLLLLLLLLLLLLLLLLLLLLLZ+*;;   ",
"   ;;;;<O$ZLLLLLLLLLLLLLLLLLLLfOOfLLLLLLLLLLLLLLLLLLLLLLLlo;;   ",
"  ;;;;;+$GLLLLDkr999999993rLLLhOOfLLL8:41141141411113vLLLL;%;;  ",
"  ;;;<&OFLLLKi+oO++O++O++o$LLLfOOfLLL;o++++++++++%+++XvLLLeO;;  ",
"  ;;;;ovLLLG,o*<;;;;;;;;;+5LLLfOOfLLL5+<;;<;<;;;;;;;;O1LLLfO<;  ",
"  ;;;+5LLLK,O;;;;;;;;;;;;+5LLLfOOfLLL5+;;;;;;;;;;;;;;%>LLLkO;;  ",
"  ;;;OnLLLyo;;;;;;;;;=;;;+5LLLfOOfLLL5+;;;;;;;;;;;;;;+1LLLgO;;  ",
" ;;;&*JLLSO*;;;;;;;;;;;;;+5LLLfOOfLLL4+*---=**-*-;--*.sLLLtO;;; ",
" ;;;O0LLLso<;;;;;;;;;;;-;+2LLLfOOfLLL:o++++++@+++++++wKLLL4+;;; ",
" ;;;OaLLL6+;;;;;;;;;;;;;;+5LLLfOOfLLLZCCCCCCCCCCCCCVDLLLLVO;;;; ",
" ;;;OjLLL1+;;;;;;;;;;;;;;+5LLLfOOfLLLLLLLLLLLLLLLLLLLLLLF@@<;;; ",
" ;;;OkLLL<+<=;;;;;;-;;;;;+5LLLfOOfLLLLLLLLLLLLLLLLLLLLLLF$@;;;; ",
" ;;;OdLLL6+;;;;;;;;;;;;;;+5LLLfOOfLLLZNVVVVVVVNCVVVNSLLLLVO-;;; ",
" ;;<OqLLLuO;;;;;;;;;;;;;;+5LLLfOOfLLL:o++O++++++O++O+8KLLL4+;;; ",
" ;;;+;LLLVo-;;;;;;;;;;;;;+5LLLfOOfLLL4O---;-*-*----;-XiLLLuO;;; ",
" ;;;;OBLLL6O<;;;;;;;;;;;;+5LLLfOOfLLL5+;;;;;;;;;;;;;;+,LLLjO;;; ",
"  ;;;O0LLLGO+<;;;;;;;;;;;+5LLLfOOfLLL5+;;;;;;;;;;;;;;%<LLLkO;;  ",
"  ;;;;oCLLLZoO;;;;;;;;;;;+5LLLfOOfLLL5+<;;;;;;;;;;;;<O5LLLfO<;  ",
"  ;;=<+$KLLLS3Oo++%%%%%%&O>LLLfOOfLLL;o++++++++++++++XnLLLeO;;  ",
"  ;;;;<O3LLLLLmr4;;;;;;<;@6LLLhOOfLLL8,55555552512217nLLLL=@;;  ",
"   ;;;;;O6HLLLLLLKHJKKJKKHKLLLfOOfLLLLLLLLLLLLLLLLLLLLLLLlo<;   ",
"   ;;;;;<O:MLLLLLLLLLLLLLLLLLL9+OjLLLLLLLLLLLLLLLLLLLLLLV+*;;   ",
"   ;;;;;;;+OqNLLLLLLLLLLLLLLLvO;O0LLLLLLLLLLLLLLLLLLLLHgO@;;;   ",
"    ;;;;;;;;OO1yzccccccccccceO*>;+0jdfffffffffffffffd0*O*;;;    ",
"    ;;;;;;;;;-+OOoOOOOOoOOOOO;;-;;+OOOO+OOOOOOOOOOOOO+@;;;;;    ",
"     ;;;;;;;;;;<;;<;;;;;;;;;;;;;;;<;;;;;;;;;;;<;;;;;;;;;;;;     ",
"     ;;;;;;;;;;;;;;;;;;;;;;;;;;;;;;;;;;;;;;;;;;;;;;;;;;;;;;     ",
"      ;;;;;;;;;;;;;;;;;;;-;;;;;;;;;;;;;;;;;;;;;;;;;;;;;;;;      ",
"       ;;;;;;-;;;;;-;;;;=;;;;;;;;;;;;;;;;;;;;;;;;;;;;;;;;       ",
"       ;;;;;;;-;;;;;;;;;;;;;;;;;;;;;;;;=;;;;;;;;;;;;;;;;;       ",
"        ;;;;;;;;;;;;;;;;;;;;;;;;;;;-;;;;;;;;-;;;;;;;;;;;        ",
"         ;;;;;;;;;;;;;;;;;;;;;;-;=;-;-;;;;;-;-;;;;;;-;;         ",
"          ;;;;;-;-;;;;;;;;;;;;;;;;;;;;;;;;;;;;;;;;;;;;          ",
"           ;;;;;;;;;;;-;;;;;;;;;;;;;;;;;;;;;;;;;;;;;;           ",
"            ;;;;;;;;;;;;;;-;;=;;;;;;;;;;;;;;;;;;;;;;            ",
"             ;;;;;;;;;;;;;;;;-;;;;;;;;;;;;;;;-;;;;;             ",
"               ;;;;;;;;;;;;;;;;;;;;;;;;;;;;;;;;;;               ",
"                ;;;;;;-;;;;;;;;;;;;-;;=;;;;;;-;;                ",
"                  ;;;;;;;;;;-;;;;;;;;;;;;;;;;;                  ",
"                    ;;;;;;;;;;;;;;;;;;;;;;;;                    ",
"                       ;;-;;;;;;;;;;-;;;;                       ",
"                           ;;;;;;;;;;                           ",
"                                                                "
};
