/* XPM */
static char *diabase321695139812[] = {
/* columns rows colors chars-per-pixel */
"32 32 224 2 ",
"   c None",
".  c #0053DE",
"X  c #0053DF",
"o  c #0054DE",
"O  c #0054DF",
"+  c #0060E1",
"@  c #0060E2",
"#  c #0061E2",
"$  c #0064E2",
"%  c #0065E2",
"&  c #0064E3",
"*  c #006AE3",
"=  c #006DE3",
"-  c #006EE3",
";  c #006DE4",
":  c #006EE4",
">  c #006FE5",
",  c #0070E4",
"<  c #0071E4",
"1  c #0071E5",
"2  c #0370E5",
"3  c #0072E4",
"4  c #0073E4",
"5  c #0072E5",
"6  c #0073E5",
"7  c #0074E5",
"8  c #0075E5",
"9  c #0076E5",
"0  c #0075E6",
"q  c #0076E6",
"w  c #0077E6",
"e  c #0377E6",
"r  c #0574E5",
"t  c #0078E6",
"y  c #0079E6",
"u  c #007AE6",
"i  c #017AE6",
"p  c #007AE7",
"a  c #0679E6",
"s  c #067AE6",
"d  c #077BE6",
"f  c #017CE6",
"g  c #027CE6",
"h  c #037DE7",
"j  c #047DE7",
"k  c #047EE7",
"l  c #067FE7",
"z  c #097AE6",
"x  c #0A7AE6",
"c  c #0A7CE6",
"v  c #0A7FE7",
"b  c #0B7FE7",
"n  c #0F7FE7",
"m  c #1C7CE7",
"M  c #207FE7",
"N  c #0B80E7",
"B  c #0A81E7",
"V  c #0C80E7",
"C  c #0D81E7",
"Z  c #0F82E7",
"A  c #0C82E8",
"S  c #1482E8",
"D  c #1085E8",
"F  c #1185E8",
"G  c #1186E8",
"H  c #1286E8",
"J  c #1386E8",
"K  c #1386E9",
"L  c #1486E8",
"P  c #1487E9",
"I  c #1687E8",
"U  c #1787E8",
"Y  c #1787E9",
"T  c #1985E8",
"R  c #1188E9",
"E  c #1389E9",
"W  c #1788E9",
"Q  c #1789E9",
"!  c #168BE9",
"~  c #178BE9",
"^  c #1989E9",
"/  c #1A89E9",
"(  c #1B89E9",
")  c #1B8AE9",
"_  c #1A8BE9",
"`  c #1B8BE9",
"'  c #1B8BEA",
"]  c #1C89E9",
"[  c #1E88E9",
"{  c #1C8AE9",
"}  c #1D8AE9",
"|  c #1C8BE9",
" . c #1D8BE9",
".. c #1E8BE9",
"X. c #1F8BE9",
"o. c #188CE9",
"O. c #198CE9",
"+. c #1D8CE9",
"@. c #1E8CE9",
"#. c #1F8CE9",
"$. c #1D8DEA",
"%. c #1F8CEA",
"&. c #1E8DEA",
"*. c #1F8EEA",
"=. c #2384E8",
"-. c #2287E9",
";. c #2685E8",
":. c #2288E9",
">. c #2388E9",
",. c #2389E9",
"<. c #238BEA",
"1. c #2489E9",
"2. c #2589E9",
"3. c #258AE9",
"4. c #268AE9",
"5. c #208DEA",
"6. c #218DEA",
"7. c #208EEA",
"8. c #2989E9",
"9. c #2B8AE9",
"0. c #288CEA",
"q. c #288EEA",
"w. c #2C8EEA",
"e. c #2C8FEA",
"r. c #328BEA",
"t. c #3A8EEA",
"y. c #2F91EB",
"u. c #3092EB",
"i. c #3893EB",
"p. c #3E91EB",
"a. c #3894EB",
"s. c #3994EB",
"d. c #3B94EB",
"f. c #3A95EB",
"g. c #3B95EB",
"h. c #3C96EB",
"j. c #3D97EC",
"k. c #4994EB",
"l. c #4199EC",
"z. c #469BED",
"x. c #479CED",
"c. c #489CED",
"v. c #499CED",
"b. c #4B9DED",
"n. c #4D9CEC",
"m. c #4C9EED",
"M. c #4E9FEE",
"N. c #5A9EED",
"B. c #50A0ED",
"V. c #52A0ED",
"C. c #53A0ED",
"Z. c #54A1ED",
"A. c #54A2ED",
"S. c #63A3EE",
"D. c #64A6EF",
"F. c #7EB5F1",
"G. c #7DB8F2",
"H. c #7DB9F2",
"J. c #87BFF4",
"K. c #88BDF3",
"L. c #8ABEF3",
"P. c #8BBEF3",
"I. c #8CBCF3",
"U. c #90BDF3",
"Y. c #86C1F4",
"T. c #8AC0F4",
"R. c #8AC2F4",
"E. c #8AC3F4",
"W. c #8EC0F4",
"Q. c #8DC2F4",
"!. c #90C3F4",
"~. c #92C2F4",
"^. c #93C3F4",
"/. c #9BC2F3",
"(. c #98C5F4",
"). c #99C5F5",
"_. c #94C8F5",
"`. c #97C8F5",
"'. c #97C9F5",
"]. c #98C8F5",
"[. c #99C9F5",
"{. c #9AC9F5",
"}. c #9ACAF5",
"|. c #A1CAF5",
" X c #A5CAF5",
".X c #A1CCF5",
"XX c #A4CDF6",
"oX c #A4CEF6",
"OX c #B4D4F7",
"+X c #B5D5F7",
"@X c #BBD6F7",
"#X c #BDD7F7",
"$X c #BDDAF8",
"%X c #C6D7F8",
"&X c #C0D8F8",
"*X c #C9E0F9",
"=X c #CAE0F9",
"-X c #CCE1F9",
";X c #CEE2FA",
":X c #D1E4F9",
">X c #D4E5FA",
",X c #D5E6FA",
"<X c #DDE7FA",
"1X c #DAE8FA",
"2X c #DAE8FB",
"3X c #DBE8FB",
"4X c #DCE8FB",
"5X c #DDEBFB",
"6X c #E0EBFB",
"7X c #E5EDFB",
"8X c #E5EFFC",
"9X c #E9EEFC",
"0X c #E8EFFC",
"qX c #E7F1FC",
"wX c #E8F1FC",
"eX c #E9F0FD",
"rX c #EAF3FD",
"tX c #EBF3FD",
"yX c #ECF1FD",
"uX c #F9FAFE",
"iX c #FAFBFE",
"pX c #FBFBFE",
"aX c #FFFDFF",
"sX c white",
/* pixels */
"                            ( ( ( (                             ",
"                      ( ( ( ( ( ( ( ( ( (                       ",
"                  ( ( ( ( ( ( ( ( ( ( ( ( ( (                   ",
"              ( ( ( ( ( ( ( ( ( ( ( ( ( ( ( ( ( (               ",
"            ( ( ( ( ( ( ( ( ( ( ( ( ( ( ( ( ( ( ( (             ",
"          ( ( ( ( ( ( ( ( ( ( ( ( ( ( ( ( ( ( ( ( ( (           ",
"        ( ( ( ( ] ( ( ( ( ( ( ( ( ( ( ( ( ] ] ( ( ( ] (         ",
"      ( ( ( ( ] ] &.] ] ] ( ( ( ( ] ] &.] ] ] &.] ] ] ( (       ",
"      ( ( ] ( B f f f f f f Z <.] f 9 9 9 f 9 9 f 9 f H ]       ",
"    ( ( &.l , ] s.g.i.i.d.d.n S L j.m.z.v.x.v.x.v.m.g.c f 5.    ",
"    ] &.5 ;. XsXsXsXsXsXsXsX:X5 w.sXsXsXsXsXsXsXsXsXsX:X9.d     ",
"  ] &.5 p.iXsX<X{.XXXXXX/.6XsX1.1.sX1XI.`.`.}.).`.L.@XsX9Xx H   ",
"  &.d =.sXsXS., ; , , 5 o P.sX1.-.sXP.X 5 5 5 5 5 ; + OXsXl.f   ",
"  ( 5 $XsXS.+ E &.] { 5., }.sX-.1.sX`.= L H L H L o.+ H.sXM.9   ",
"] l <.sX>X; E ] ] ( ( ] , }.sX1.<.sX`.+ Z B B B A d M 3XsXu.f ] ",
"&.9 v.sX!.; &.] ( ( ( ] , }.sX-.-.sXpXyXrXyXyXyXyX9XsXsX!.5 ] ] ",
"&.9 v.sXQ.5 &.( ( ( { { = }.sX;.-.sXiX9X8XqXyXqXqX7XsXsX!.5 ] ( ",
"] k w.sX=X= W ] ( { { { 5 }.sX-.1.sX).+ Z B c B c d m 2XsXu.f &.",
"  ( 5 =XsXn.& W { { ] &., }.sX<.<.sX_.= W L L L E ( + H.sXM.9   ",
"  &.9 r.sXsXk.* = , , 5 o P.sX1.-.sXP.o 5 ; 5 5 5 ; + +XsXl.f   ",
"  ( &.5 N.sXsX%XT.Y.T.E.F.>XsX1.1.sX1XU.}.).).}.}.W.&XsX8Xx H   ",
"    ] ( = t.#XsXsXsXsXsXsXsX5Xr 9.sXsXsXsXsXsXsXsXsXsX%X8.d     ",
"    ( ] &.f 9 w.V.Z.V.V.Z.Z.T Z L s.x.l.l.l.l.l.l.z.s.l f 5.    ",
"      ( ] ] W l 9 9 9 9 9 9 Z 5.( f 9 f f 9 9 f f 9 p L ]       ",
"      ( ( ( ( ] &.] ] &.] &.{ ( ( ] ] ] &.] ] ] ] ] ] ] (       ",
"        ( ( ( ( ( ( ] ( ( ( ( ( ( ] ] ( ( ] ] ( ( ] ( (         ",
"          ( ( ( ( ( ( ( ( ( ( ( ( ( ( ( ( ( ( ( ( ( (           ",
"            ( ( ( ( ( ( ( ( ( ( ( ( ( ( ( ( ( ( ( (             ",
"              ( ( ( ( ( ( ( ( ( ( ( ( ( ( ( ( ( (               ",
"                  ( ( ( ( ( ( ( ( ( ( ( ( ( (                   ",
"                      ( ( ( ( ( ( ( ( ( (                       ",
"                            ( ( ( (                             "
};
