<?xml version="1.0" encoding="UTF-8"?>
<svg version="1.1" xmlns="http://www.w3.org/2000/svg" width="1024" height="1024">
<path d="M0 0 C1.29227005 -0.00705963 2.5845401 -0.01411926 3.91596985 -0.02139282 C8.06117323 -0.04090364 12.20631749 -0.04608466 16.3515625 -0.046875 C17.0582822 -0.04716957 17.76500191 -0.04746414 18.49313736 -0.04776764 C39.46294241 -0.04917982 60.18498362 0.12715566 80.9765625 3.203125 C82.41144941 3.40924181 83.84634568 3.61529345 85.28125 3.82128906 C173.33072287 16.6390155 259.50716552 51.66311533 327.9765625 109.203125 C329.76794462 110.64097958 331.55961862 112.07847058 333.3515625 113.515625 C338.14219872 117.42900595 342.70070217 121.54862962 347.21044922 125.77856445 C350.01581682 128.40865262 352.85750292 130.9730485 355.7734375 133.48046875 C360.57161293 137.65847184 365.05267693 142.13275634 369.5390625 146.640625 C370.35052734 147.44822266 371.16199219 148.25582031 371.99804688 149.08789062 C376.86664953 153.9643522 381.48532603 158.97975646 385.9765625 164.203125 C387.45190786 165.83159517 388.9304968 167.45714017 390.4140625 169.078125 C394.81449006 173.96666721 398.94159539 179.01035804 402.9765625 184.203125 C403.43514648 184.78916504 403.89373047 185.37520508 404.36621094 185.97900391 C426.94053469 214.87267719 445.67018047 245.42797807 461.9765625 278.203125 C462.72785272 279.68359977 463.47915288 281.16406949 464.23046875 282.64453125 C493.21971889 340.90191545 509.94187148 410.15177351 510.1796875 475.2265625 C510.18674713 476.51883255 510.19380676 477.8111026 510.20108032 479.14253235 C510.22059114 483.28773573 510.22577216 487.43287999 510.2265625 491.578125 C510.22700436 492.63820456 510.22700436 492.63820456 510.22745514 493.71969986 C510.22886732 514.68950491 510.05253184 535.41154612 506.9765625 556.203125 C506.77044569 557.63801191 506.56439405 559.07290818 506.35839844 560.5078125 C493.540672 648.55728537 458.51657217 734.73372802 400.9765625 803.203125 C399.53870792 804.99450712 398.10121692 806.78618112 396.6640625 808.578125 C392.75068155 813.36876122 388.63105788 817.92726467 384.40112305 822.43701172 C381.77103488 825.24237932 379.206639 828.08406542 376.69921875 831 C372.52121566 835.79817543 368.04693116 840.27923943 363.5390625 844.765625 C362.73146484 845.57708984 361.92386719 846.38855469 361.09179688 847.22460938 C356.2153353 852.09321203 351.19993104 856.71188853 345.9765625 861.203125 C344.34809233 862.67847036 342.72254733 864.1570593 341.1015625 865.640625 C336.21302029 870.04105256 331.16932946 874.16815789 325.9765625 878.203125 C325.39052246 878.66170898 324.80448242 879.12029297 324.20068359 879.59277344 C295.30701031 902.16709719 264.75170943 920.89674297 231.9765625 937.203125 C230.49608773 937.95441522 229.01561801 938.70571538 227.53515625 939.45703125 C169.27777205 968.44628139 100.02791399 985.16843398 34.953125 985.40625 C33.66085495 985.41330963 32.3685849 985.42036926 31.03715515 985.42764282 C26.89195177 985.44715364 22.74680751 985.45233466 18.6015625 985.453125 C17.8948428 985.45341957 17.18812309 985.45371414 16.45998764 985.45401764 C-4.50981741 985.45542982 -25.23185862 985.27909434 -46.0234375 982.203125 C-47.45832441 981.99700819 -48.89322068 981.79095655 -50.328125 981.58496094 C-138.37759787 968.7672345 -224.55404052 933.74313467 -293.0234375 876.203125 C-294.81481962 874.76527042 -296.60649362 873.32777942 -298.3984375 871.890625 C-303.18907372 867.97724405 -307.74757717 863.85762038 -312.25732422 859.62768555 C-315.06269182 856.99759738 -317.90437792 854.4332015 -320.8203125 851.92578125 C-325.61848793 847.74777816 -330.09955193 843.27349366 -334.5859375 838.765625 C-335.39740234 837.95802734 -336.20886719 837.15042969 -337.04492188 836.31835938 C-341.91352453 831.4418978 -346.53220103 826.42649354 -351.0234375 821.203125 C-352.49878286 819.57465483 -353.9773718 817.94910983 -355.4609375 816.328125 C-359.86136506 811.43958279 -363.98847039 806.39589196 -368.0234375 801.203125 C-368.48202148 800.61708496 -368.94060547 800.03104492 -369.41308594 799.42724609 C-391.98740969 770.53357281 -410.71705547 739.97827193 -427.0234375 707.203125 C-427.77472772 705.72265023 -428.52602788 704.24218051 -429.27734375 702.76171875 C-458.26659389 644.50433455 -474.98874648 575.25447649 -475.2265625 510.1796875 C-475.23362213 508.88741745 -475.24068176 507.5951474 -475.24795532 506.26371765 C-475.26746614 502.11851427 -475.27264716 497.97337001 -475.2734375 493.828125 C-475.27373207 493.1214053 -475.27402664 492.41468559 -475.27433014 491.68655014 C-475.27574232 470.71674509 -475.09940684 449.99470388 -472.0234375 429.203125 C-471.81732069 427.76823809 -471.61126905 426.33334182 -471.40527344 424.8984375 C-458.587547 336.84896463 -423.56344717 250.67252198 -366.0234375 182.203125 C-364.58558292 180.41174288 -363.14809192 178.62006888 -361.7109375 176.828125 C-357.79755655 172.03748878 -353.67793288 167.47898533 -349.44799805 162.96923828 C-346.81790988 160.16387068 -344.253514 157.32218458 -341.74609375 154.40625 C-337.56809066 149.60807457 -333.09380616 145.12701057 -328.5859375 140.640625 C-327.77833984 139.82916016 -326.97074219 139.01769531 -326.13867188 138.18164062 C-321.2622103 133.31303797 -316.24680604 128.69436147 -311.0234375 124.203125 C-309.39496733 122.72777964 -307.76942233 121.2491907 -306.1484375 119.765625 C-301.25989529 115.36519744 -296.21620446 111.23809211 -291.0234375 107.203125 C-290.43739746 106.74454102 -289.85135742 106.28595703 -289.24755859 105.81347656 C-260.35388531 83.23915281 -229.79858443 64.50950703 -197.0234375 48.203125 C-195.54296273 47.45183478 -194.06249301 46.70053462 -192.58203125 45.94921875 C-134.32464705 16.95996861 -65.07478899 0.23781602 0 0 Z " fill="#1B89E9" transform="translate(494.0234375,20.796875)"/>
<path d="M0 0 C0.95943835 -0.00445784 1.91887669 -0.00891569 2.90738893 -0.01350862 C3.9535644 -0.01332426 4.99973988 -0.01313989 6.07761765 -0.01294994 C7.75428312 -0.01846498 7.75428312 -0.01846498 9.46482062 -0.02409142 C13.21895665 -0.03512406 16.973065 -0.03897156 20.72721481 -0.04278088 C23.41642038 -0.04904632 26.105623 -0.0556808 28.79482651 -0.0626936 C36.87599098 -0.08244295 44.95715668 -0.09252725 53.03833926 -0.10142139 C56.85353401 -0.10581121 60.66872738 -0.11117662 64.48392105 -0.11641026 C77.18690451 -0.1334293 89.88988714 -0.14791639 102.59288025 -0.155159 C105.88847225 -0.15706862 109.18406424 -0.15898898 112.47965622 -0.16094494 C113.70817875 -0.16167055 113.70817875 -0.16167055 114.96151993 -0.16241082 C128.18456949 -0.17068436 141.40752781 -0.19597267 154.63053766 -0.22852562 C168.2395578 -0.26175219 181.84853186 -0.27962218 195.45759273 -0.28280324 C203.08474806 -0.28495517 210.71177078 -0.29350717 218.33888626 -0.31926441 C224.84518342 -0.34118653 231.35131582 -0.34891846 237.85764572 -0.33929763 C241.16621723 -0.3348125 244.47418016 -0.33856347 247.78274727 -0.35605907 C283.05036667 -0.53190745 318.12236422 4.38178426 344.67155075 29.54437733 C353.9579726 39.37423867 360.80212723 51.35357845 365.128582 64.13422108 C365.40508591 64.93698475 365.68158981 65.73974842 365.96647263 66.56683826 C370.98901651 81.96892826 371.69404967 97.01582298 371.691082 113.07172108 C371.69516068 114.49727818 371.69516068 114.49727818 371.69932175 115.95163441 C371.68980265 145.36912882 366.12629064 172.93977996 347.128582 196.13422108 C346.12180872 197.46244747 345.11905805 198.79379765 344.128582 200.13422108 C344.685457 200.7658617 345.242332 201.39750233 345.816082 202.04828358 C362.43556842 221.53126259 371.16914647 245.92275121 371.36686325 271.51703358 C371.374935 272.52652058 371.38300674 273.53600758 371.39132309 274.57608509 C371.40513019 276.71605197 371.41586737 278.85604057 371.42374802 280.99603748 C371.43517122 283.14649556 371.45546589 285.29692751 371.48527145 287.44720936 C371.8917942 316.83948516 366.27264928 345.52894257 346.128582 368.13422108 C345.46342575 368.89347889 344.7982695 369.6527367 344.112957 370.43500233 C326.3023874 389.53189084 298.54634808 397.85106834 273.07902789 399.30877209 C264.74148693 399.59524616 256.40135837 399.5646354 248.05997849 399.55414295 C245.27539676 399.55987095 242.49083441 399.56999562 239.7062645 399.57980824 C232.97507556 399.60069052 226.24397304 399.60541345 219.51275551 399.60362035 C214.040363 399.60230552 208.56799716 399.60615325 203.09560966 399.61354542 C201.51115467 399.61564485 199.92669968 399.61774245 198.34224468 399.61983824 C197.15891638 399.62140353 197.15891638 399.62140353 195.95168246 399.62300044 C181.09224909 399.64182863 166.23286529 399.64087371 151.37342495 399.63403112 C137.79513913 399.62844434 124.2170413 399.64934249 110.63879942 399.68239158 C96.65988004 399.71614974 82.68105074 399.7312954 68.70208985 399.72667456 C60.86825167 399.72443419 53.03458785 399.72961159 45.20078468 399.75456715 C38.54064486 399.77560622 31.88077535 399.77914512 25.22062432 399.76026756 C21.82663574 399.75113057 18.433562 399.7526312 15.03954697 399.77062321 C11.35424349 399.78881056 7.67027545 399.77606822 3.98501205 399.75568104 C2.92207143 399.76819889 1.8591308 399.78071673 0.76397985 399.79361391 C-7.13705819 399.7001036 -13.59755281 397.75460606 -19.7096253 392.57707834 C-27.48259595 384.34936001 -27.30859166 374.25420595 -27.25909805 363.52142811 C-27.26327558 362.04339221 -27.26875539 360.56535951 -27.27541786 359.08733273 C-27.28983607 355.04321454 -27.28563917 350.99930079 -27.27825105 346.95517159 C-27.27351275 342.58699934 -27.28603499 338.2188709 -27.29626846 333.85071278 C-27.31344811 325.30035903 -27.3142983 316.7500788 -27.30905556 308.19971228 C-27.30501152 301.24967199 -27.30646019 294.2996534 -27.31180382 287.34961414 C-27.31255224 286.35985273 -27.31330066 285.37009133 -27.31407176 284.35033715 C-27.31560326 282.33955653 -27.31714161 280.32877592 -27.31868673 278.31799531 C-27.33240844 259.46990338 -27.32697611 240.62185297 -27.31550152 221.77376199 C-27.30556672 204.53414691 -27.31851466 187.29463913 -27.34243571 170.0550406 C-27.36682238 152.34627671 -27.37643581 134.63756281 -27.36978298 116.92878246 C-27.36629016 106.9894381 -27.36852717 97.05017627 -27.38603401 87.11084461 C-27.40075044 78.6509584 -27.40139858 70.19121288 -27.3839631 61.73132944 C-27.37544665 57.416246 -27.37331931 53.10141395 -27.38861465 48.78634357 C-27.40245228 44.83356371 -27.39771079 40.88125082 -27.37837542 36.92849803 C-27.37461228 35.50129606 -27.37754651 34.07405676 -27.38798707 32.64688802 C-27.45359186 22.98972117 -26.39916153 15.6925992 -20.621418 7.82172108 C-14.77283318 2.10605864 -8.0982192 0.01753518 0 0 Z " fill="#FEFEFE" transform="translate(563.8714179992676,311.86577892303467)"/>
<path d="M0 0 C1.59293109 0.00030668 3.18586231 0.00017226 4.77879333 -0.00036526 C9.02773183 -0.00059014 13.27664191 0.00518736 17.52557373 0.01224518 C21.51900315 0.01795853 25.5124258 0.0182093 29.50585938 0.0189209 C41.16927457 0.02415913 52.83268452 0.03812036 64.49609375 0.05102539 C90.56609375 0.07165039 116.63609375 0.09227539 143.49609375 0.11352539 C143.49609375 93.83352539 143.49609375 187.55352539 143.49609375 284.11352539 C117.94171875 284.17540039 92.38734375 284.23727539 66.05859375 284.30102539 C53.99598999 284.34199341 53.99598999 284.34199341 41.68969727 284.38378906 C31.80065918 284.39733887 31.80065918 284.39733887 27.15782166 284.39985657 C23.94433766 284.40262944 20.73100531 284.41378258 17.51756287 284.43025208 C13.3976314 284.45108237 9.27791521 284.45695294 5.15793598 284.45274222 C3.65903094 284.45362054 2.16011708 284.459418 0.66125786 284.47117078 C-37.83110046 284.75856968 -72.11565282 269.11319079 -99.7265625 242.89477539 C-104.0361036 238.57917305 -107.79364627 233.94564905 -111.50390625 229.11352539 C-112.24253906 228.2021582 -112.98117188 227.29079102 -113.7421875 226.35180664 C-137.37580762 196.43221502 -143.36724785 159.33563217 -140.26074219 122.20727539 C-139.68623717 117.41404541 -138.69365411 112.79526049 -137.50390625 108.11352539 C-137.23707031 106.89020508 -136.97023437 105.66688477 -136.6953125 104.40649414 C-132.98426081 88.6551414 -125.93544306 74.20993129 -116.50390625 61.11352539 C-115.88757324 60.25597656 -115.88757324 60.25597656 -115.25878906 59.38110352 C-91.94550784 27.42997554 -59.31764707 6.94491003 -20.32873535 0.5965271 C-13.58750602 -0.22942027 -6.78006818 -0.01709172 0 0 Z " fill="#1B89E9" transform="translate(286.50390625,371.886474609375)"/>
<path d="M0 0 C1.61863358 -0.00272042 3.23726593 -0.00628716 4.855896 -0.01062012 C9.1902401 -0.0196173 13.52448737 -0.01625433 17.85883284 -0.00986195 C22.42555439 -0.00474059 26.99226854 -0.00950974 31.55899048 -0.01263428 C39.21609971 -0.01625405 46.87317012 -0.01152512 54.53027344 -0.00195312 C63.35433212 0.00895098 72.17829849 0.00538363 81.00235498 -0.00560594 C88.61898628 -0.01470791 96.23558996 -0.01595059 103.85222495 -0.0107286 C108.3840261 -0.00762786 112.91578396 -0.00714743 117.44758224 -0.01380157 C121.70444527 -0.01961784 125.96119008 -0.0155006 130.21804047 -0.00401306 C131.77074361 -0.00139023 133.32345687 -0.00209039 134.87615585 -0.00653839 C146.75160092 -0.03739849 158.22299502 0.41343888 169.15869141 5.44628906 C169.8405249 5.75598633 170.5223584 6.06568359 171.22485352 6.38476562 C181.99316501 11.47434946 188.7291682 19.36779056 193.19775391 30.45800781 C195.38787547 36.86293165 197.0321646 42.8557736 197.03732586 49.65345192 C197.04055031 50.72950931 197.04377475 51.8055667 197.04709691 52.9142319 C197.04554831 54.09057645 197.0439997 55.266921 197.04240417 56.47891235 C197.04466973 57.73315738 197.04693529 58.98740241 197.0492695 60.27965486 C197.05538618 63.7588127 197.05525405 67.2379465 197.05407512 70.71710849 C197.05387108 74.47050773 197.05939034 78.22389927 197.06413269 81.97729492 C197.07243973 89.33102313 197.07518758 96.68474332 197.07574507 104.03847583 C197.07622033 110.01795492 197.07827556 115.99743138 197.08144569 121.97690964 C197.09025341 138.93560669 197.09486504 155.89429742 197.09411522 172.85299678 C197.09405529 174.22441328 197.09405529 174.22441328 197.09399414 175.62353516 C197.09395326 176.53893158 197.09391238 177.45432801 197.09387026 178.39746372 C197.09346404 193.22393725 197.10302714 208.05038534 197.11713251 222.87685151 C197.13150662 238.10624186 197.13840208 253.33561981 197.13753873 268.5650171 C197.13720706 277.11276916 197.13994101 285.66049457 197.15071678 294.20824051 C197.15983554 301.48821736 197.16198585 308.7681555 197.15520736 316.04813559 C197.15194873 319.75984857 197.15186158 323.47148735 197.16056061 327.18319321 C197.16991097 331.21443922 197.16363222 335.24551443 197.15592957 339.27676392 C197.16107313 340.43972414 197.16621669 341.60268436 197.17151612 342.8008858 C197.10532875 358.51304447 193.84342544 373.60857828 182.90869141 385.41894531 C169.21695526 398.49944324 152.13454449 399.41080105 134.21899414 399.40405273 C132.62953615 399.40704872 131.04007888 399.41045226 129.45062256 399.41423035 C125.14596634 399.4230382 120.84133003 399.42540734 116.53666568 399.42604613 C113.8361845 399.42675942 111.13570829 399.4288992 108.43522835 399.43154335 C98.98114835 399.44079209 89.52708242 399.44487957 80.07299805 399.4440918 C71.31753692 399.44349385 62.56213797 399.45399097 53.80669254 399.46983546 C46.25039271 399.48301296 38.69411291 399.48827133 31.13780171 399.48763639 C26.64294153 399.48738401 22.14813643 399.49008739 17.65328789 399.50081444 C-31.62715709 399.610186 -31.62715709 399.610186 -51.02880859 394.50878906 C-52.07182129 394.24493408 -53.11483398 393.9810791 -54.18945312 393.70922852 C-62.75683003 391.47890024 -70.9797399 388.79849157 -79.09130859 385.25878906 C-79.81946777 384.94603027 -80.54762695 384.63327148 -81.29785156 384.31103516 C-131.88530426 362.31140025 -170.24676321 319.93386352 -190.64355469 269.10327148 C-194.01773455 260.36226026 -196.27085431 251.44323081 -198.09130859 242.25878906 C-198.34501221 241.10556152 -198.59871582 239.95233398 -198.86010742 238.76416016 C-201.2218972 227.44050456 -201.52239358 216.37094181 -201.42749023 204.82958984 C-201.40383916 201.76275301 -201.40696345 198.6967884 -201.41357422 195.62988281 C-201.39317731 180.62259535 -200.72844371 165.8327906 -196.84130859 151.25878906 C-196.62369873 150.42468506 -196.40608887 149.59058105 -196.18188477 148.73120117 C-182.32574037 96.98816036 -147.21055602 52.69445913 -101.11230469 25.62133789 C-83.32823655 15.51886987 -64.50494791 8.36812529 -44.52880859 4.00878906 C-43.8469751 3.85764648 -43.1651416 3.70650391 -42.46264648 3.55078125 C-28.44304211 0.69693416 -14.26226845 -0.04121119 0 0 Z M-83.09130859 82.25878906 C-83.66300781 82.66967773 -84.23470703 83.08056641 -84.82373047 83.50390625 C-116.97925828 106.96632872 -137.22783954 139.64798702 -143.67724609 178.81738281 C-147.9301424 215.88157839 -140.92050339 254.41090807 -117.56787109 284.22363281 C-116.75060547 285.22523438 -115.93333984 286.22683594 -115.09130859 287.25878906 C-114.63208008 287.82484863 -114.17285156 288.3909082 -113.69970703 288.97412109 C-89.20091201 318.98719338 -55.80512445 338.11969143 -17.09130859 342.25878906 C-11.75470526 342.51257267 -6.43030184 342.51353954 -1.08984375 342.48583984 C0.48379316 342.48522546 2.05743061 342.48549706 3.63106728 342.48657036 C7.80095292 342.48701724 11.97072104 342.47552437 16.14057922 342.46134949 C20.07020389 342.44986056 23.99980165 342.44941791 27.92944336 342.44799805 C39.38087461 342.43755198 50.83228454 342.40962945 62.28369141 342.38378906 C87.89994141 342.34253906 113.51619141 342.30128906 139.90869141 342.25878906 C139.90869141 248.53878906 139.90869141 154.81878906 139.90869141 58.25878906 C114.02431641 58.19691406 88.13994141 58.13503906 61.47119141 58.07128906 C53.3250415 58.04397705 45.1788916 58.01666504 36.78588867 57.98852539 C29.42681311 57.97848658 29.42681311 57.97848658 22.06773376 57.97245789 C18.81258395 57.96968456 15.55758378 57.95852955 12.30247498 57.94206238 C8.12952056 57.9212369 3.95677867 57.91536066 -0.21622288 57.91957223 C-1.73466537 57.91869369 -3.25311654 57.91289332 -4.77151382 57.90114367 C-32.90964675 57.69380643 -60.20021912 65.77349114 -83.09130859 82.25878906 Z " fill="#FDFEFE" transform="translate(290.09130859375,313.7412109375)"/>
<path d="M0 0 C58.74838955 -0.16121214 58.74838955 -0.16121214 83.41601562 -0.1953125 C89.05183966 -0.20314284 94.68766326 -0.21122444 100.32348633 -0.21972656 C101.02975019 -0.22078156 101.73601405 -0.22183655 102.46367985 -0.22292352 C113.83459129 -0.24027468 125.20542102 -0.27178423 136.57628416 -0.30861118 C148.26407941 -0.34614615 159.95183217 -0.36826224 171.63968521 -0.37635398 C178.19692327 -0.38155163 184.75397666 -0.39369889 191.31115532 -0.42292023 C197.49418083 -0.45024865 203.67694714 -0.45840994 209.86002731 -0.45243073 C212.11854401 -0.4535232 214.37707017 -0.46137232 216.63553429 -0.4768219 C235.37596466 -0.59863647 255.84530013 0.17800163 270.375 13.75 C285.04276679 29.75951677 284.89233241 49.12102635 284.2265625 69.70996094 C283.35889689 82.30981197 277.36803892 93.59278558 268 102 C267.29875 102.66 266.5975 103.32 265.875 104 C250.16554237 114.92831835 231.84487053 114.43416381 213.54125977 114.34057617 C211.20410167 114.33972849 208.86694279 114.34020779 206.52978516 114.34190369 C200.22708424 114.34275955 193.92455685 114.32520031 187.62189603 114.30418181 C181.68980642 114.2872585 175.75772291 114.28430532 169.82561242 114.2812262 C158.08740386 114.27468421 146.34925837 114.25478469 134.61108398 114.22631836 C123.21850898 114.19871912 111.82595129 114.17754883 100.43334961 114.16479492 C99.72222135 114.16399093 99.0110931 114.16318694 98.2784155 114.16235858 C92.09119534 114.15541867 85.90397469 114.14896092 79.71675396 114.14255047 C53.14444323 114.1143961 26.57230004 114.05461309 0 114 C0 76.38 0 38.76 0 0 Z " fill="#1B89E9" transform="translate(594,540)"/>
<path d="M0 0 C59.83209335 -0.16121214 59.83209335 -0.16121214 84.93554688 -0.1953125 C90.67114304 -0.20314308 96.40673877 -0.21122475 102.14233398 -0.21972656 C103.22051463 -0.22130906 103.22051463 -0.22130906 104.32047671 -0.22292352 C115.89963075 -0.24028428 127.47870471 -0.27179925 139.05781139 -0.30861118 C150.95577939 -0.34611919 162.85370569 -0.3682566 174.75173038 -0.37635398 C181.42849557 -0.38133285 188.10511526 -0.39373316 194.78183174 -0.42292023 C201.0748338 -0.45020528 207.36758131 -0.45841854 213.6606369 -0.45243073 C215.9619199 -0.45352512 218.263212 -0.46140036 220.56444359 -0.4768219 C238.65453906 -0.59203651 256.89040615 0.20067232 270.875 13.375 C277.5902714 20.74737433 280.41567866 28.42280914 283 38 C283.1757959 38.58837646 283.3515918 39.17675293 283.53271484 39.78295898 C286.55771372 54.13510884 285.69167661 74.0242616 279 87 C278.49210937 88.00546875 277.98421875 89.0109375 277.4609375 90.046875 C271.02417058 101.33409661 261.3918684 107.59157564 249 111 C237.46698963 113.80576218 225.66160415 113.26700037 213.88183594 113.22705078 C211.54512029 113.22648597 209.20840429 113.22680459 206.87168884 113.22793579 C200.55645373 113.22850758 194.24129522 113.21678146 187.92607784 113.20278788 C181.98633358 113.19152325 176.04659211 113.18953846 170.10683861 113.18748413 C158.3503455 113.18311844 146.59388031 113.16984007 134.83740234 113.15087891 C123.42431779 113.13249084 112.0112409 113.11837166 100.59814453 113.10986328 C99.88621228 113.10932729 99.17428004 113.10879129 98.44077408 113.10823905 C92.24695102 113.1036127 86.05312774 113.09930741 79.85930443 113.09503365 C53.23950999 113.07625043 26.61978968 113.03639898 0 113 C0 75.71 0 38.42 0 0 Z " fill="#1B89E9" transform="translate(594,370)"/>
</svg>
