/* XPM */
static char *result[] = {
/* columns rows colors chars-per-pixel */
"64 64 178 2 ",
"   c #001F8F",
".  c #002492",
"X  c #002B95",
"o  c #003197",
"O  c #003499",
"+  c #003C9D",
"@  c #00439E",
"#  c #00489E",
"$  c #0045A1",
"%  c #004CA4",
"&  c #0A4DA4",
"*  c #1346A1",
"=  c #174FA5",
"-  c #0052A6",
";  c #0A53A6",
":  c #005BA4",
">  c #0055A8",
",  c #0B55A9",
"<  c #025BAB",
"1  c #0B5CAB",
"2  c #1252A6",
"3  c #1F52A7",
"4  c #115AA6",
"5  c #1456A9",
"6  c #135BAB",
"7  c #1A5BAB",
"8  c #225EAC",
"9  c #0661AD",
"0  c #0C63AE",
"q  c #1164AE",
"w  c #1B64AE",
"e  c #1968AF",
"r  c #0C66B0",
"t  c #0D68B1",
"y  c #1467B0",
"u  c #1D65B0",
"i  c #1569B1",
"p  c #196BB2",
"a  c #1870B4",
"s  c #2362AE",
"d  c #2A62AF",
"f  c #2468AE",
"g  c #3465AE",
"h  c #2366B0",
"j  c #2D67B1",
"k  c #236CB2",
"l  c #2A6CB2",
"z  c #356CB3",
"x  c #2571B2",
"c  c #2D73B5",
"v  c #2D78B7",
"b  c #3473B5",
"n  c #3A73B7",
"m  c #3478B6",
"M  c #3C7AB7",
"N  c #3476B8",
"B  c #3A76BA",
"V  c #337BB9",
"C  c #3C7CBA",
"Z  c #4374B5",
"A  c #4B7CB7",
"S  c #4276B8",
"D  c #437DBA",
"F  c #4A7CBB",
"G  c #537EB9",
"H  c #3B81BB",
"J  c #4483BD",
"K  c #4B84BE",
"L  c #4688BD",
"P  c #4F88BE",
"I  c #5483BD",
"U  c #5C86BF",
"Y  c #5389BE",
"T  c #5A89BE",
"R  c #6086BD",
"E  c #6288BF",
"W  c #6A89BC",
"Q  c #4585C0",
"!  c #4C86C0",
"~  c #4D88C1",
"^  c #5B87C1",
"/  c #548BC1",
"(  c #5B8DC2",
")  c #5690C3",
"_  c #5C92C3",
"`  c #618EC1",
"'  c #6B8EC3",
"]  c #6394C4",
"[  c #6C93C6",
"{  c #6699C5",
"}  c #6B99C6",
"|  c #6C9BC9",
" . c #7796C5",
".. c #739CC6",
"X. c #799AC5",
"o. c #719DC9",
"O. c #7B9DCA",
"+. c #6EA0C9",
"@. c #74A2CB",
"#. c #7BA3CA",
"$. c #7DABCE",
"%. c #829EC7",
"&. c #82A5CC",
"*. c #8AA7CF",
"=. c #84ACCD",
"-. c #8AACCE",
";. c #93AECE",
":. c #8FB0CF",
">. c #92B2CF",
",. c #9AB2CF",
"<. c #8AA7D0",
"1. c #86ACD0",
"2. c #8DACD1",
"3. c #94AFD1",
"4. c #8BB2D2",
"5. c #93B5D3",
"6. c #9BB5D4",
"7. c #95BAD4",
"8. c #9CBCD6",
"9. c #96B7D9",
"0. c #9BB6D8",
"q. c #9DBCD9",
"w. c #A4AECD",
"e. c #A3BCD6",
"r. c #A9BED6",
"t. c #A2BCD9",
"y. c #ABBEDA",
"u. c #B6BCD3",
"i. c #A4C1D6",
"p. c #AAC3D7",
"a. c #A7C2DA",
"s. c #ACC3DB",
"d. c #ACC9DC",
"f. c #B4C3D6",
"g. c #BAC7D7",
"h. c #B3C5DB",
"j. c #BAC7DA",
"k. c #B4C9DC",
"l. c #BCCBDC",
"z. c #BCD2DD",
"x. c #B9C6E0",
"c. c #B5CCE1",
"v. c #BDCCE1",
"b. c #BED3E2",
"n. c #C2CDDE",
"m. c #C5D4DD",
"M. c #C8D2DE",
"N. c #C9D8DF",
"B. c #C2CEE2",
"V. c #C4D4E3",
"C. c #C9D4E4",
"Z. c #CCDAE4",
"A. c #CFDBE9",
"S. c #D1DBE5",
"D. c #DDDEE1",
"F. c #D3DEE9",
"G. c #D8DFEA",
"H. c #CFE4E7",
"J. c #DBE3E6",
"K. c #DCE4EC",
"L. c #DFEAEF",
"P. c #DEE7F0",
"I. c #E1E4E5",
"U. c #E4EAE6",
"Y. c #EEEAE7",
"T. c #E1E5EC",
"R. c #E4ECEC",
"E. c #EAEFEC",
"W. c #EBF0EC",
"Q. c #F4F4EC",
"!. c #F8F3EB",
"~. c #F3F8ED",
"^. c #FAF9EC",
"/. c #E5F1F2",
"(. c #F3F6F1",
"). c #FEFEF5",
"_. c #FFFFFD",
"`. c None",
/* pixels */
"`.`.`.`.`.`.`.`.`.`.`.`.`.`.`.`.`.`.`.`.`.`.`.`.`.`.- % - > 1 q 6 < - - % - `.`.`.`.`.`.`.`.`.`.`.`.`.`.`.`.`.`.`.`.`.`.`.`.`.`.",
"`.`.`.`.`.`.`.`.`.`.`.`.`.`.`.`.`.`.`.`.`.`.% % w J #.5.7.t.p.h.g.p.8.7.5.O.C w $ % `.`.`.`.`.`.`.`.`.`.`.`.`.`.`.`.`.`.`.`.`.`.",
"`.`.`.`.`.`.`.`.`.`.`.`.`.`.`.`.`.`.`.`.% k O.9.l.t.5.&._ J H V V H L ] *.5.t.l.7.o.h $ `.`.`.`.`.`.`.`.`.`.`.`.`.`.`.`.`.`.`.`.",
"`.`.`.`.`.`.`.`.`.`.`.`.`.`.`.`.`.- % K 0.n.9.] k - % % - < < < < < < - % % > x } 9.B.0.D % > `.`.`.`.`.`.`.`.`.`.`.`.`.`.`.`.`.",
"`.`.`.`.`.`.`.`.`.`.`.`.`.`.`.`.$ I y.y.o.7 $ - 9 y p i i q i y q i i i i i y 9 % % h %.x.y.D @ `.`.`.`.`.`.`.`.`.`.`.`.`.`.`.`.",
"`.`.`.`.`.`.`.`.`.`.`.`.`.`.# j x.x.^ % % r p i y y i q y i i q i i q y i i y y i i 9 % ; [ B.y.w % `.`.`.`.`.`.`.`.`.`.`.`.`.`.",
"`.`.`.`.`.`.`.`.`.`.`.`.`.$ #.F.O.% - t p i p i i i i i y q i i i q y y i i i i i i i i r % ; *.F.' $ `.`.`.`.`.`.`.`.`.`.`.`.`.",
"`.`.`.`.`.`.`.`.`.`.`.- , j.v.w $ y i y p 9 - > - < - < p i q i q i i i < - > > > - r i i i t @ j C.t.$ < `.`.`.`.`.`.`.`.`.`.`.",
"`.`.`.`.`.`.`.`.`.`.% j K.<.$ < p y y p > p { ( ( ( { m - i y y 0 0 r - C { ( ( ( { y < p q i p - % 6.A.7 - `.`.`.`.`.`.`.`.`.`.",
"`.`.`.`.`.`.`.`.`.% z T.^ + y i y y i 9 l t.1.| @.@.O.s.P < y > u k 7 ( s.X.@.@.| 2.6.u 0 i i q p r + O.K.s % `.`.`.`.`.`.`.`.`.",
"`.`.`.`.`.`.`.`.% z T.S $ i i y y y i - | <.O - > > + E $.O % o.f.,.w.J.x @ - - - + 5._ > i i i q i y $ T T.7 > `.`.`.`.`.`.`.`.",
"`.`.`.`.`.`.`.- h T.S % i y y y y y i - ] o.> p i i < J k.#.] h.2 q ; -.L < i i i > =./ > i q q y y i p $ ` K.6 < `.`.`.`.`.`.`.",
"`.`.`.`.`.`.`., K.( $ i i y y y y y i - ] @.% i i i - ! p.T K I c q , -.L < i y i - 1.Y : i i i y y y y p + #.C.$ `.`.`.`.`.`.`.",
"`.`.`.`.`.`.$ k.1.@ i y i y y y y y i - _ #.> i i i > { T . @ % f...u.m.v < i y i - 1.Y < i q i y y y y i i + t.6.# `.`.`.`.`.`.",
"`.`.`.`.`.$ o.v.@ y i y y y y i y y i - o.o.+ > > > $ z Z.#.$.q.=.2 2 5.m $ > < < + $.] - i i q y y y y q i r % H.( % `.`.`.`.`.",
"`.`.`.`.`.j K.w < i y y y y y y y i i < D h.` / / ( G 0.6.I { / < 0 - $.5.n _ K D ' h.c < i i i y y y y i i p - z F.6 `.`.`.`.`.",
"`.`.`.`.$ k.o.$ a y y y y y y y y y y e > P 7.1.1.1.4.+.- - < - y i y - e.b.X.g.z.-.J - p y y y y y y y y y y p @ 5.0.@ `.`.`.`.",
"`.`.`.- ~ V.% y y y y y y y y y y y y y i > - - - - > - y i y i y y p % P |   ] #.o < p y y y y y y y y y y y e 9 1 Z.b < `.`.`.",
"`.`.`.% v.( % p y y y y y y y y y y y y y i y y e y y p y y y y y y i - { | @ / ( % p y y y y y y y y y y y y y p $ #.a.@ `.`.`.",
"`.`.`.~ v.% y i y y y y y y y y y y y y y y y y y y y y y y y y y y i - { 6.* ( h._ > y y y y y y y y y y y y y i r , V.c `.`.`.",
"`.`.% a.+.% i i y y y y y y y y y y y y y y y y y y y y y y y y y y y 9 q 5.6.h j f.q 0 y y y y y y y y y y y y i p $ 4.5.$ `.`.",
"`.`.u l.q 0 y i y y y y y y y y y y y y y y y y y y y y y y y y y y i p < 1 ..0 y 6.e 0 y y y y y y y y y y y y i i < c l.1 `.`.",
"`.# @.t.$ i y y y y y y y y y y y y y y y y y y y y y y y y y y y y i i % ; e.% > -.1 y q i y y y y y y y y y y y y y % d.I < `.",
"`.% y.{ - i y y y y y y y y y y y y y y y y y y y y y y y y y y y y i - K ;.D.X.&.I.f > p y y y y y y y y y y y y i p $ =.6.- `.",
"`.y j.p 9 y y y y y y y y y y y y y y y y y y y y y y y y y y y y i - ] h.%.} $.#.#.t.e 0 y y y i i i q i i i q y y i > D d.% `.",
"`.J s.> y y y y y y y y y y y y y y y y y y y y y y y y y y y y y i - q.M @ - % - O :._ - i y y q q i i q q i i y y y r q l.c `.",
"- O.7.% p y y y y y y y y y y y y y y y y y y y y y y y y y y y y i - -.L < y i i > $./ < y y y i q q i i e i q y y y i - q./ < ",
"% 7.&.% i y y y y y y y y y y y y y y y y y y y y y y y y y y y y i - 1.L < y y i - 1./ < y y y i i i q i i i q y y y i % 4.&.% ",
"- 7.] - i y y y y y y y y y y y y y y y y y y y y y y y y y y y y i > 1.L < i i i > =./ > i i i q q i i q i i i q i i i - &.>.% ",
"- e.J < y y y y y y y y y y y y y y y y y y y y y y y y y y y y y y > 6.m $ - > - + =.] - i q q i i i q i q q i i i q i - } 7.- ",
"< i.H < y y y y y y y y y y y y y y y y y y y y y y y y y y y y y y % o.y.` { ] _  .s.x 1 i q i q i q i i i q i i q i i - _ 7.- ",
"1 f.H < y y y y y y y y y y y y y y y y y y y y y y y y y y y y y y i > { =.@.@.@.4.B > i y i u i i q i q i i i q i q y < Y t.- ",
"< p.H < y y y y y y y y y y y y y y q i y y y y i i q i i q i i y y i y - - - - - % < i i i y y y y y y y y y y y y y i > / t.> ",
"> t.H < y y y y y y y y y y y y y y i i y y y y q q i i i i q q y y y y i i i i i i i y y y y y y y y y y y y y y y y i > / 6.- ",
"> t.~ > i y y y y y y y y y y y y y i i y y i y i i i q q i i i i y y y i i q i y y y y y y y y y y y y y y y y y y y i - } 7.- ",
"- 7.| - i y y y y y y y y y y y p 9 - > < p p < - q i i q i p 0 : 1 i y q q i q y y y y y i y y y y y y y i y y y y y i % =.5.% ",
"% ;.-.% i y y y y y y y y y y i q u B B q - y e B k r i i i q y n c q q i i i q y y y y y y y y y y y y y y y y y y q p % 5.#.- ",
": } 7.% p y y y y y y y y y y i % =._._.E.J o b._.l > i i i % J _.#.% i i q i p y y y i i y y i i i y y y y y y y y y i - q.Y < ",
"`.V h.< y y y y y y y y y y y y % N.).g._.Z.+ _ #.r 9 - - i % =._.h @ p p 9 % > i i y - % y p y % - y i y y y y y y y 0 q j.x `.",
"`.1 g.c < y y y y y y y y y y < 0 ).l.+ ).Z.> 7 1 1 % ! M - % V.R.h b 0 < > ^ c < y % ! D < 1 - ! D > y y y y y y y q < L d.- `.",
"`.% y.@.% i i i y y y y y y i - M _.&.; _.>.7 _.$.o s._._.( $ U.).Q.).0 & J._.(.c + t._._.@.o a._._.{ % i i i q y y i % -.;.- `.",
"`.% { a.% i y y y y y y y y p % } _.b M _.K D _.d =._.T ).p.; ).e.p.).5 J._.W _./ D _.U ).5.K _.I !.Z.$ q q i i y y i - h.K < `.",
"`.`.q l.k < i y y y y y y y i $ p._.> -._.8 -.).1 | Z 8 _.I b _.g 6.W.1 1.2 U _.7 p.).@ d ; H.M.. (.6.% p q i q y i < H l.> `.`.",
"`.`.@ 8.1.$ i y y y y y y y r - I.~.$ N.).; J.E.% o F (.).6 #.).l ^.z.+ O O.).W.$ @._.-.X - !.Q.T._.P % p i i q y p @ 6.1.$ `.`.",
"`.`.`.C V.- r i y y y y i i < p ).h.% ).m.; ).q.X h.(.J.^.# V.I.z _.{ + K./.Q.m.$ % J._.z q ).S.=.+.k 9 q i i i y 0 q V.h `.`.`.",
"`.`.`.# s.o.$ p y y y y i i % J _.F 6 _.} s _.A Y _.8 B.Z.% ).1.I _.8 t.(.2 ^.8.$ $ w _.6.A _.5 d / < i i q q i p @ 4.6.% `.`.`.",
"`.`.`.> M Z.; r y y y y y i $ #._.Z f._.; ] _.s J.M.& _.&.6 _.A &.).l ).X.g _.G e.s.X ^.4.=.^.+ _.W.$ y i i q p 1 w A.f < `.`.`.",
"`.`.`.`.$ 0.3.$ i y y y y y % Z._.)._.-.X R.).; Q.).Q._.b Y _.Y._.r.s _.Q.)._.2 C._.B._.8 >._.S._.M - i q i i i @ a.4.@ `.`.`.`.",
"`.`.`.`.`.6 G.z > p y y y r 1 7.k.a.( % 1 d.4.$ 4.k.=.c.w ] a.q.V.i - k.9.1.h.> l V.P.D $ k c.R.P % i y y y p % K Z.% `.`.`.`.`.",
"`.`.`.`.`.% ( Z.% 0 p y y y p > - % % y i - - y > % - % q 0 % % - < y - - % - i < - - - p < - - - y y y y p < 6 K.S - `.`.`.`.`.",
"`.`.`.`.`.`.@ 0.t.+ y y y y i y y y i y i y y y q y y r y r y y r i i r y y y y y r r i p i q 0 i y y y y 0 @ v.=.# `.`.`.`.`.`.",
"`.`.`.`.`.`.`.$ C.&.@ i y y y y y y y y i y y y y q i i y y y y y i y y y y y y y i y y y i i q y y y y y @ 0.a.@ `.`.`.`.`.`.`.",
"`.`.`.`.`.`.`.< 2 K.[ @ i y y y y y y y y y y y y y y y y y y y y y y y y y y y y y y y i q i i y y y y @ *.C.% 0 `.`.`.`.`.`.`.",
"`.`.`.`.`.`.`.`.> 7 K.[ @ y i y y y y y y y y y i y y y y y y y y y y y y y y y y y y y i q i q y p 0 + <.F.; < `.`.`.`.`.`.`.`.",
"`.`.`.`.`.`.`.`.`.> 7 K.<.+ 9 p y y y y y y y y y y y y y y y y y y y y y y y y y y y y i i i i p < @ 6.C.; - `.`.`.`.`.`.`.`.`.",
"`.`.`.`.`.`.`.`.`.`.- , V.y.- - i y y y y y y y y y y y y y y y y y y y y y y y y y y y q i q p % 6 V.y.% < `.`.`.`.`.`.`.`.`.`.",
"`.`.`.`.`.`.`.`.`.`.`.< % 5.F.S @ 0 e y y y y y i i y y y y y y y y y y y y y y y y y y y a < $ I G.&.@ r `.`.`.`.`.`.`.`.`.`.`.",
"`.`.`.`.`.`.`.`.`.`.`.`.`.@ G A.0.6 # 0 i i y y q q i y y y y y y y y y y y y y y y y p 9 $ h y.C.S $ `.`.`.`.`.`.`.`.`.`.`.`.`.",
"`.`.`.`.`.`.`.`.`.`.`.`.`.`.% ; 0.C.<.6 $ < y i i i y y y y y y y y y y y y y i i y < % w 3.C.=.% - `.`.`.`.`.`.`.`.`.`.`.`.`.`.",
"`.`.`.`.`.`.`.`.`.`.`.`.`.`.`.`.$ l t.B.5.B - % < 0 i i i i i i i y i i i y r - $ ; M 0.V.0.u $ `.`.`.`.`.`.`.`.`.`.`.`.`.`.`.`.",
"`.`.`.`.`.`.`.`.`.`.`.`.`.`.`.`.`.< $ l 3.k.e.;.H w - % % - - - - > - % % - u ! 3.y.s.<.f $ < `.`.`.`.`.`.`.`.`.`.`.`.`.`.`.`.`.",
"`.`.`.`.`.`.`.`.`.`.`.`.`.`.`.`.`.`.`.`.$ , Q 5.t.j.9.5.-.| _ ( ( _ o.-.9.0.l.0.5.C ; $ `.`.`.`.`.`.`.`.`.`.`.`.`.`.`.`.`.`.`.`.",
"`.`.`.`.`.`.`.`.`.`.`.`.`.`.`.`.`.`.`.`.`.`.> % - k L &.5.5.7.6.8.7.7.:.#.J k - $ < `.`.`.`.`.`.`.`.`.`.`.`.`.`.`.`.`.`.`.`.`.`.",
"`.`.`.`.`.`.`.`.`.`.`.`.`.`.`.`.`.`.`.`.`.`.`.`.`.`.< % % - - - - - % % - < `.`.`.`.`.`.`.`.`.`.`.`.`.`.`.`.`.`.`.`.`.`.`.`.`.`."
};
